<svg xmlns="http://www.w3.org/2000/svg" width="400" height="400"><g fill-rule="evenodd"><path d="M379.2.6c0 .433.444.6 1.6.6h1.6v3.209c0 3.011.06 3.235.974 3.652 1.863.849 2.226.292 2.226-3.41V1.277l1.987-.138L389.573 1l.114 3.6c.106 3.389.166 3.607 1.013 3.728.843.12.901-.02.921-2.2l.021-2.328.872 2.08c1.036 2.47 3.886 3.554 3.886 1.477 0-.306.18-.557.4-.557.22 0 .4-.36.4-.8 0-1.437.748-.839.876.7.1 1.205.301 1.525 1.024 1.628.885.125.9.055.9-4.1V0h-1.32c-1.549 0-2.28.602-2.28 1.88 0 .506-.18.92-.4.92-.22 0-.4.36-.4.8 0 .44-.103.8-.229.8-.394 0-1.371-1.123-1.371-1.577 0-.555-.878-2.134-1.4-2.517-.857-.63-13.4-.355-13.4.294M232.114 79.4c.003 1.1.081 1.503.173.895.092-.609.09-1.509-.005-2-.095-.492-.171.005-.168 1.105m61.535 117.982c.277.278 11.169.334 11.444.059.132-.133-2.43-.241-5.693-.241-3.263 0-5.852.082-5.751.182M200 284.8c-.317.44-.785.8-1.04.8s-1.205.72-2.112 1.6c-.907.88-1.8 1.6-1.984 1.6-.622 0-6.064 5.578-6.064 6.215 0 .348-.18.521-.4.385-.22-.136-.4.018-.4.343s-.135.65-.3.724c-1.598.71-3.189 11.133-1.7 11.133.22 0 .4.183.4.406 0 .474 6.637 7.194 7.106 7.194.175 0 .577.36.894.8.317.44.806.8 1.086.8.639 0 7.314 6.518 7.314 7.141 0 .253.18.459.4.459.222 0 .4 1.067.4 2.4s-.178 2.4-.4 2.4c-.22 0-.4.36-.4.8 0 .44-.18.8-.4.8-.22 0-.4.296-.4.657 0 .361-.54 1.172-1.2 1.803-.66.631-1.2 1.321-1.2 1.533 0 .513-3.509 4.007-4.024 4.007-.221 0-1.02.617-1.774 1.372-.755.754-1.694 1.555-2.087 1.778-.568.324-.625.555-.275 1.129.657 1.076 2.856 1.163 3.736.149.395-.456.929-.828 1.188-.828.258 0 .687-.183.953-.407 1.813-1.529 2.441-1.993 2.7-1.993.878 0 7.255-6.957 8.054-8.786.483-1.108 1.025-2.014 1.204-2.014.179 0 .325-.54.325-1.2 0-.66.18-1.2.4-1.2.22 0 .4-.99.4-2.2 0-1.21-.18-2.2-.4-2.2-.22 0-.4-.54-.4-1.2 0-.66-.138-1.2-.306-1.2-.168 0-.75-.72-1.294-1.6-.544-.88-1.125-1.6-1.292-1.6-.167 0-1.223-.9-2.347-2-1.123-1.1-2.254-2-2.513-2-.259 0-.731-.36-1.048-.8-.317-.44-.815-.8-1.106-.8-.292 0-.946-.405-1.453-.9-1.693-1.651-3.043-2.7-3.473-2.7-.575 0-1.568-1.029-1.568-1.625 0-.264-.405-.833-.9-1.262-1.311-1.139-1.286-6.711.035-7.857.476-.412.865-.965.865-1.229 0-.263.945-1.365 2.1-2.448l3.389-3.174c.708-.663 1.497-1.205 1.753-1.205.255 0 .755-.327 1.111-.728.356-.4.962-.844 1.347-.987.845-.314.917-1.725.129-2.514-.82-.82-2.357-.704-3.029.229m-56 .389c0 .249-1.338.411-3.4.411-2 0-3.4.165-3.4.4 0 .22-.9.4-2 .4s-2 .18-2 .4c0 .22-.54.4-1.2.4-.66 0-1.2.18-1.2.4 0 .22-.36.4-.8.4-.44 0-.8.18-.8.4 0 .22-.54.4-1.2.4-.66 0-1.2.18-1.2.4 0 .22-.36.4-.8.4-.44 0-.8.18-.8.4 0 .22-.27.4-.6.4-.33 0-.6.18-.6.4 0 .22-.258.4-.572.4-1.435 0-10.628 7.959-10.628 9.201 0 .238-.36.819-.8 1.291-.44.472-.8 1.095-.8 1.383 0 .289-.18.525-.4.525-.22 0-.4.242-.4.539 0 .296-.272 1.083-.604 1.749-2.544 5.1-1.365 17 2.02 20.385.321.321.584.753.584.958 0 .611 7.993 8.369 8.622 8.369.318 0 .578.18.578.4 0 .22.36.4.8.4.44 0 .8.18.8.4 0 .22.36.4.8.4.44 0 .8.15.8.332 0 .325.888.816 3.1 1.715.605.245 1.413.605 1.795.8.382.194 1.111.353 1.62.353.509 0 1.097.172 1.308.383.21.21 1.866.506 3.68.657 1.813.151 3.297.429 3.297.618 0 .188 1.699.342 3.776.342 2.087 0 3.887.179 4.024.4.147.238 2.671.4 6.224.4 3.717 0 5.976-.151 5.976-.4 0-.229 1.2-.4 2.8-.4 1.54 0 2.8-.155 2.8-.345 0-.19.945-.46 2.1-.602 2.05-.25 4.397-.937 5.4-1.58.381-.244.5-3.033.5-11.697V316.8h-3.586c-4.666 0-4.414-.64-4.414 11.202 0 10.267-.096 10.798-1.948 10.798-.443 0-.916.18-1.052.4-.136.22-.957.4-1.824.4-.867 0-1.576.18-1.576.4 0 .247-2.067.4-5.4.4s-5.4-.153-5.4-.4c0-.233-1.333-.4-3.2-.4-1.867 0-3.2-.167-3.2-.4 0-.22-.81-.4-1.8-.4s-1.8-.18-1.8-.4c0-.22-.54-.4-1.2-.4-.66 0-1.2-.18-1.2-.4 0-.22-.36-.4-.8-.4-.44 0-.8-.18-.8-.4 0-.22-.253-.4-.562-.4-.666 0-3.979-1.668-4.171-2.1-.074-.165-.403-.3-.732-.3-.329 0-1.289-.72-2.135-1.6-.846-.88-1.645-1.6-1.776-1.6-.337 0-3.024-2.808-3.024-3.16 0-.159-.54-.808-1.2-1.44-.66-.632-1.2-1.386-1.2-1.675 0-.289-.18-.525-.4-.525-.22 0-.4-.36-.4-.8 0-.44-.18-.8-.4-.8-.22 0-.4-.36-.4-.8 0-.44-.18-.8-.4-.8-.22 0-.4-.72-.4-1.6 0-.88-.18-1.6-.4-1.6-.24 0-.4-1.6-.4-4s.16-4 .4-4c.22 0 .4-.63.4-1.4 0-.77.135-1.401.3-1.403.359-.004 1.3-1.941 1.3-2.677 0-.286.141-.52.314-.52.172 0 .626-.529 1.008-1.176 1.051-1.778 7.292-8.424 7.911-8.424.22 0 .787-.36 1.259-.8.472-.44 1.095-.8 1.383-.8.289 0 .525-.18.525-.4 0-.22.249-.4.554-.4.705 0 4.624-1.158 5.541-1.637.382-.2 1.147-.363 1.7-.363.553 0 1.005-.18 1.005-.4 0-.22.99-.4 2.2-.4 1.21 0 2.2-.18 2.2-.4 0-.248 2.141-.4 5.624-.4h5.624l-.124-1.5L155 285l-5.5-.111c-3.573-.073-5.5.033-5.5.3M69.2 306.6c0 13.733-.138 21-.4 21-.22 0-.4.9-.4 2s-.18 2-.4 2c-.22 0-.4.54-.4 1.2 0 .66-.18 1.2-.4 1.2-.22 0-.4.276-.4.613 0 .796-2.591 3.387-3.387 3.387-.337 0-.613.18-.613.4 0 .22-.349.4-.776.4-.427 0-.888.18-1.024.4-.136.22-1.239.4-2.452.4-2.378 0-3.348.571-3.348 1.971 0 .786.218.829 4.2.829 2.31 0 4.2-.157 4.2-.348 0-.192.9-.468 2-.614 1.1-.146 2-.439 2-.652 0-.212.279-.386.619-.386.642 0 4.174-3.25 4.19-3.856.005-.189.361-.794.791-1.344.43-.55.786-1.394.791-1.876.005-.482.176-.98.381-1.107.205-.126.495-1.217.646-2.423.151-1.207.433-2.194.628-2.194.201 0 .354-9.09.354-21v-21h-6.8v21m18 7.4v28.4H94v-56.8h-6.8V314m147.6-26.8c0 .88-.18 1.6-.4 1.6-.22 0-.4.72-.4 1.6 0 .88-.18 1.6-.4 1.6-.22 0-.4.54-.4 1.2 0 .66-.18 1.2-.4 1.2-.22 0-.4.81-.4 1.8s-.18 1.8-.4 1.8c-.22 0-.4.72-.4 1.6 0 .88-.18 1.6-.4 1.6-.22 0-.4.619-.4 1.376 0 .757-.18 1.488-.4 1.624-.22.136-.4.957-.4 1.824 0 .867-.18 1.576-.4 1.576-.22 0-.4.81-.4 1.8s-.18 1.8-.4 1.8c-.22 0-.4.54-.4 1.2 0 .66-.18 1.2-.4 1.2-.22 0-.4.72-.4 1.6 0 .88-.18 1.6-.4 1.6-.22 0-.4.9-.4 2s-.18 2-.4 2c-.22 0-.4.462-.4 1.026 0 .565-.177 1.358-.394 1.762-.216.405-.512 2.013-.657 3.574-.145 1.561-.418 2.838-.606 2.838-.189 0-.343.54-.343 1.2 0 .66-.18 1.2-.4 1.2-.22 0-.4.72-.4 1.6 0 .88-.18 1.6-.4 1.6-.22 0-.4.9-.4 2s-.18 2-.4 2c-.22 0-.4.63-.4 1.4 0 1.393.01 1.4 1.8 1.4 1.733 0 1.8-.044 1.8-1.2 0-.66.18-1.2.4-1.2.22 0 .4-.63.4-1.4 0-.77.18-1.4.4-1.4.22 0 .4-.63.4-1.4 0-.77.18-1.4.4-1.4.22 0 .4-.63.4-1.4 0-.77.18-1.4.4-1.4.22 0 .4-.72.4-1.6 0-.88.18-1.6.4-1.6.22 0 .4-.529.4-1.176 0-.647.18-1.288.4-1.424.22-.136.4-.777.4-1.424 0-.647.18-1.176.4-1.176.22 0 .4-.72.4-1.6 0-.88.18-1.6.4-1.6.22 0 .4-.36.4-.8 0-.77.267-.8 7-.8h7v.976c0 .537.18 1.088.4 1.224.22.136.4.676.4 1.2 0 .524.18 1.064.4 1.2.22.136.4.687.4 1.224 0 .537.18.976.4.976.22 0 .4.54.4 1.2 0 .66.18 1.2.4 1.2.22 0 .4.529.4 1.176 0 .647.18 1.288.4 1.424.22.136.4.687.4 1.224 0 .537.18.976.4.976.22 0 .4.529.4 1.176 0 .647.18 1.288.4 1.424.22.136.4.867.4 1.624 0 .757.18 1.376.4 1.376.22 0 .4.36.4.8 0 .44.18.8.4.8.22 0 .4.63.4 1.4v1.4h4.2c3.467 0 4.2-.105 4.2-.6 0-.33-.18-.6-.4-.6-.22 0-.4-.529-.4-1.176 0-.647-.18-1.288-.4-1.424-.22-.136-.4-.687-.4-1.224 0-.537-.18-.976-.4-.976-.22 0-.4-.394-.4-.876s-.469-2.417-1.042-4.3c-1.028-3.376-1.258-4.052-2.055-6.024l-.853-2.119c-.248-.615-.45-1.56-.45-2.1 0-.539-.18-.981-.4-.981-.22 0-.4-.439-.4-.976 0-.537-.18-1.088-.4-1.224-.22-.136-.4-.597-.4-1.024 0-.427-.18-.776-.4-.776-.22 0-.4-.619-.4-1.376 0-.757-.18-1.488-.4-1.624-.22-.136-.4-.687-.4-1.224 0-.537-.18-.976-.4-.976-.22 0-.4-.45-.4-1s-.18-1-.4-1c-.22 0-.4-.63-.4-1.4 0-.77-.18-1.4-.4-1.4-.22 0-.4-.439-.4-.976 0-.537-.18-1.088-.4-1.224-.22-.136-.4-.597-.4-1.024 0-.427-.18-.776-.4-.776-.22 0-.4-.529-.4-1.176 0-.647-.18-1.288-.4-1.424-.22-.136-.4-.676-.4-1.2 0-.524-.18-1.064-.4-1.2-.22-.136-.4-.687-.4-1.224 0-.537-.18-.976-.4-.976-.22 0-.4-.54-.4-1.2 0-.66-.18-1.2-.4-1.2-.22 0-.4-.439-.4-.976 0-.537-.18-1.088-.4-1.224-.22-.136-.4-.687-.4-1.224 0-.537-.18-.976-.4-.976-.22 0-.4-.54-.4-1.2v-1.2h-7.6v1.6m35.2-.824c0 .427.18.888.4 1.024.22.136.4.687.4 1.224 0 .537.18.976.4.976.22 0 .4.63.4 1.4 0 .77.18 1.4.4 1.4.22 0 .4.72.4 1.6 0 .88.18 1.6.4 1.6.22 0 .4.349.4.776 0 .427.18.888.4 1.024.22.136.4.867.4 1.624 0 .757.157 1.376.349 1.376.192 0 .453.855.581 1.9.127 1.045.532 2.89.9 4.1.367 1.21.755 2.785.863 3.5.107.715.355 1.3.551 1.3.196 0 .356.54.356 1.2 0 .66.18 1.2.4 1.2.22 0 .4.72.4 1.6 0 .88.18 1.6.4 1.6.22 0 .4.363.4.806 0 1.127.931 3.994 1.297 3.994.167 0 .303.619.303 1.376 0 .757.18 1.488.4 1.624.22.136.4.867.4 1.624 0 .757.18 1.376.4 1.376.22 0 .4.54.4 1.2 0 .66.18 1.2.4 1.2.22 0 .4.529.4 1.176 0 .647.18 1.288.4 1.424.22.136.4.867.4 1.624 0 .757.18 1.376.4 1.376.22 0 .4.54.4 1.2 0 .66.18 1.2.4 1.2.22 0 .4.63.4 1.4 0 .77.18 1.4.4 1.4.22 0 .4.36.4.8 0 .744.267.8 3.8.8 3.787 0 3.8-.004 3.8-1 0-.55.18-1 .4-1 .22 0 .4-.54.4-1.2 0-.66.18-1.2.4-1.2.22 0 .4-.529.4-1.176 0-.647.18-1.288.4-1.424.22-.136.4-.867.4-1.624 0-.757.18-1.376.4-1.376.22 0 .4-.54.4-1.2 0-.66.18-1.2.4-1.2.22 0 .4-.72.4-1.6 0-.88.18-1.6.4-1.6.22 0 .4-.529.4-1.176 0-.647.18-1.288.4-1.424.22-.136.4-.687.4-1.224 0-.537.18-.976.4-.976.22 0 .4-.63.4-1.4 0-.77.18-1.4.4-1.4.22 0 .4-.72.4-1.6 0-1.333.133-1.6.8-1.6s.8.267.8 1.6c0 .88.18 1.6.4 1.6.22 0 .4.54.4 1.2 0 .66.18 1.2.4 1.2.22 0 .4.63.4 1.4 0 .77.18 1.4.4 1.4.22 0 .4.529.4 1.176 0 .647.18 1.288.4 1.424.22.136.4.687.4 1.224 0 .537.18.976.4.976.22 0 .4.72.4 1.6 0 .88.18 1.6.4 1.6.22 0 .4.72.4 1.6 0 .88.157 1.6.349 1.6.192 0 .463.765.603 1.7.141.935.473 2.465.739 3.4l.484 1.7h3.912c3.907 0 3.913-.001 3.913-1 0-.55.18-1 .4-1 .22 0 .4-.439.4-.976 0-.537.18-1.088.4-1.224.22-.136.4-.777.4-1.424 0-.647.18-1.176.4-1.176.22 0 .4-.72.4-1.6 0-.88.18-1.6.4-1.6.22 0 .4-.54.4-1.2 0-.66.16-1.2.356-1.2.196 0 .466-.63.6-1.4l.488-2.804c.135-.772.405-1.502.6-1.623.196-.121.356-.649.356-1.173s.16-1.052.356-1.173c.195-.121.454-.806.575-1.523.623-3.699 1.186-5.904 1.509-5.904.198 0 .36-.72.36-1.6 0-.88.18-1.6.4-1.6.22 0 .4-.72.4-1.6 0-.88.18-1.6.4-1.6.22 0 .4-.349.4-.776 0-.427.18-.888.4-1.024.22-.136.4-.766.4-1.4 0-.634.18-1.264.4-1.4.22-.136.4-.867.4-1.624 0-.757.18-1.376.4-1.376.22 0 .4-.54.4-1.2 0-.66.18-1.2.4-1.2.22 0 .4-.72.4-1.6 0-.88.18-1.6.4-1.6.22 0 .4-.619.4-1.376 0-.757.18-1.488.4-1.624.22-.136.4-.597.4-1.024 0-.427.18-.776.4-.776.22 0 .4-.63.4-1.4 0-.77.18-1.4.4-1.4.22 0 .4-.36.4-.8 0-.685-.267-.8-1.856-.8-2.021 0-2.909.696-2.931 2.3-.007.495-.193.9-.413.9-.22 0-.4.392-.4.872 0 .92-.66 3.256-1.249 4.423-.193.382-.351.969-.351 1.305 0 .336-.158.923-.351 1.305-.524 1.038-1.151 3.28-1.452 5.195-.147.935-.431 1.7-.632 1.7s-.365.72-.365 1.6c0 .88-.18 1.6-.4 1.6-.22 0-.4.54-.4 1.2 0 .66-.18 1.2-.4 1.2-.22 0-.4.45-.4 1s-.18 1-.4 1c-.22 0-.4.63-.4 1.4 0 .77-.18 1.4-.4 1.4-.22 0-.4.63-.4 1.4 0 .77-.18 1.4-.4 1.4-.22 0-.4.54-.4 1.2 0 .66-.18 1.2-.4 1.2-.22 0-.4.54-.4 1.2 0 .66-.18 1.2-.4 1.2-.22 0-.4.72-.4 1.6 0 .88-.18 1.6-.4 1.6-.22 0-.4.36-.4.8 0 .44-.18.8-.4.8-.22 0-.4.63-.4 1.4 0 .77-.18 1.4-.4 1.4-.22 0-.406.585-.413 1.3-.012 1.211-.746 2.7-1.331 2.7-.141 0-.256-.619-.256-1.376 0-.757-.18-1.488-.4-1.624-.22-.136-.4-.676-.4-1.2 0-.524-.18-1.064-.4-1.2-.22-.136-.4-.867-.4-1.624 0-.757-.18-1.376-.4-1.376-.22 0-.4-.542-.4-1.205s-.18-1.563-.4-2l-.8-1.59c-.22-.437-.4-1.427-.4-2.2 0-.773-.18-1.405-.4-1.405-.22 0-.4-.594-.4-1.32 0-.726-.146-1.491-.324-1.7-.179-.209-.647-1.82-1.041-3.58-.393-1.76-.877-3.613-1.075-4.119-.198-.505-.36-1.36-.36-1.9 0-.539-.18-.981-.4-.981-.22 0-.4-.72-.4-1.6 0-.88-.18-1.6-.4-1.6-.22 0-.4-.619-.4-1.376 0-.757-.18-1.488-.4-1.624-.22-.136-.4-.777-.4-1.424 0-.647-.18-1.176-.4-1.176-.22 0-.4-.63-.4-1.4 0-.77-.18-1.4-.4-1.4-.22 0-.4-.72-.4-1.6 0-.88-.18-1.6-.4-1.6-.22 0-.4-.54-.4-1.2v-1.2h-4.176c-4.123 0-5.24.344-4.269 1.315.245.245.445.848.445 1.341s.18 1.008.4 1.144c.22.136.4.766.4 1.4 0 .634.18 1.264.4 1.4.22.136.4.777.4 1.424 0 .647.18 1.176.4 1.176.22 0 .4.54.4 1.2 0 .66.18 1.2.4 1.2.22 0 .4.619.4 1.376 0 .757.18 1.488.4 1.624.22.136.4.777.4 1.424 0 .647.18 1.176.4 1.176.22 0 .4.54.4 1.2 0 .66.18 1.2.4 1.2.22 0 .4.9.4 2s-.18 2-.4 2c-.22 0-.4.439-.4.976 0 .537-.18 1.088-.4 1.224-.22.136-.4.766-.4 1.4 0 .634-.18 1.264-.4 1.4-.22.136-.4.777-.4 1.424 0 .647-.18 1.176-.4 1.176-.22 0-.4.54-.4 1.2 0 .66-.18 1.2-.4 1.2-.22 0-.4.54-.4 1.2 0 .66-.18 1.2-.4 1.2-.22 0-.4.72-.4 1.6 0 .88-.18 1.6-.4 1.6-.22 0-.4.349-.4.776 0 .427-.18.888-.4 1.024-.22.136-.4.689-.4 1.229 0 .54-.166 1.294-.37 1.676-.203.382-.602 1.595-.886 2.695l-.518 2-.332-1.6-.559-2.705c-.125-.608-.386-1.203-.581-1.324-.195-.12-.354-.838-.354-1.595s-.18-1.376-.4-1.376c-.22 0-.4-.619-.4-1.376 0-.757-.18-1.488-.4-1.624-.22-.136-.4-.777-.4-1.424 0-.647-.18-1.176-.4-1.176-.22 0-.4-.72-.4-1.6 0-.88-.18-1.6-.4-1.6-.22 0-.4-.619-.4-1.376 0-.757-.18-1.488-.4-1.624-.22-.136-.4-.777-.4-1.424 0-.647-.18-1.176-.4-1.176-.22 0-.4-.63-.4-1.4 0-.77-.18-1.4-.4-1.4-.22 0-.4-.619-.4-1.376 0-.757-.18-1.488-.4-1.624-.22-.136-.4-.777-.4-1.424 0-.647-.18-1.176-.4-1.176-.22 0-.4-.72-.4-1.6 0-.88-.18-1.6-.4-1.6-.22 0-.4-.529-.4-1.176 0-.647-.18-1.288-.4-1.424-.22-.136-.4-.676-.4-1.2 0-.524-.18-1.064-.4-1.2-.22-.136-.4-.766-.4-1.4 0-.634-.18-1.264-.4-1.4-.22-.136-.4-.867-.4-1.624 0-.757-.18-1.376-.4-1.376-.22 0-.4-.463-.4-1.029 0-1.807-.799-2.171-4.771-2.171-3.326 0-3.629.065-3.629.776m-32 9.2c0 .427.18.888.4 1.024.22.136.4.867.4 1.624 0 .757.18 1.376.4 1.376.22 0 .4.54.4 1.2 0 .66.18 1.2.4 1.2.22 0 .4.36.4.8 0 .44.161.8.358.8.197 0 .448.675.558 1.5.256 1.928 1.134 5.042 1.495 5.3.153.11.382.74.51 1.4.127.66.352 1.695.501 2.3l.271 1.1h-5.846c-5.58 0-5.847-.036-5.847-.8 0-.44.18-.8.4-.8.22 0 .4-.72.4-1.6 0-.88.18-1.6.4-1.6.22 0 .4-.72.4-1.6 0-.88.18-1.6.4-1.6.22 0 .4-.63.4-1.4 0-.77.18-1.4.4-1.4.22 0 .4-.885.4-1.967 0-1.081.172-2.026.382-2.1.211-.073.428-.808.482-1.633.055-.825.243-1.5.418-1.5s.318-.54.318-1.2c0-.66.18-1.2.4-1.2.22 0 .4.349.4.776M165.899 333.1c-.069 2.805-.125.51-.125-5.1 0-5.61.056-7.905.125-5.1a251.33 251.33 0 0 1 0 10.2" fill="#2c2c2c"/><path d="M296 17.171c0 .205-.287.659-.639 1.011-.858.858-.422 1.818.826 1.818.557 0 1.013.18 1.013.4 0 .22.54.4 1.2.4.66 0 1.2.18 1.2.4 0 .22.54.4 1.2.4.66 0 1.2.18 1.2.4 0 .22.54.4 1.2.4.66 0 1.2.18 1.2.4 0 .22.452.4 1.005.4.553 0 1.318.163 1.7.363 1.023.535 4.873 1.637 5.717 1.637.402 0 .842.18.978.4.136.22.867.4 1.624.4.757 0 1.376.18 1.376.4 0 .22.54.4 1.2.4.66 0 1.2.18 1.2.4 0 .22.54.4 1.2.4.66 0 1.2.18 1.2.4 0 .22-.54.4-1.2.4-.66 0-1.2.18-1.2.4 0 .225-1.125.4-2.576.4-1.417 0-2.688.18-2.824.4-.136.22-1.227.4-2.424.4-1.197 0-2.176.18-2.176.4 0 .222-1.067.4-2.4.4s-2.4.178-2.4.4c0 .22-.9.4-2 .4s-2 .18-2 .4c0 .222-1.067.4-2.4.4s-2.4.178-2.4.4c0 .22-.99.4-2.2.4-1.21 0-2.2.18-2.2.4 0 .222-1.067.4-2.4.4s-2.4.178-2.4.4c0 .22-.889.4-1.976.4s-2.088.18-2.224.4c-.136.22-1.047.4-2.024.4-.977 0-1.776.18-1.776.4 0 .22-.99.4-2.2.4-1.21 0-2.2.18-2.2.4 0 .22-.9.4-2 .4s-2 .18-2 .4c0 .22-.979.4-2.176.4s-2.288.18-2.424.4c-.136.22-1.047.4-2.024.4-.977 0-1.776.18-1.776.4 0 .22-.643.4-1.429.4-1.434 0-2.812.887-2.403 1.548.387.627 3.771 1.291 4.529.89.387-.205 2.413-.57 4.503-.811 5.709-.659 6.963-.874 7.38-1.268.209-.197 1.244-.359 2.3-.359 1.056 0 1.92-.18 1.92-.4 0-.222 1.067-.4 2.4-.4s2.4-.178 2.4-.4c0-.22.954-.4 2.12-.4 1.166 0 2.291-.163 2.5-.361.209-.199 1.235-.469 2.28-.6 4.781-.601 5.5-.742 5.5-1.079 0-.198 1.08-.36 2.4-.36 1.333 0 2.4-.178 2.4-.4 0-.222 1.067-.4 2.4-.4s2.4-.178 2.4-.4c0-.22.979-.4 2.176-.4s2.288-.18 2.424-.4c.136-.22 1.216-.4 2.4-.4s2.264-.18 2.4-.4c.136-.22 1.227-.4 2.424-.4 1.197 0 2.176-.18 2.176-.4 0-.222 1.067-.4 2.4-.4h2.4v1.2c0 .66-.18 1.2-.4 1.2-.22 0-.4.72-.4 1.6 0 .88-.18 1.6-.4 1.6-.22 0-.4.54-.4 1.2 0 .66-.18 1.2-.4 1.2-.22 0-.4.619-.4 1.376 0 .757-.18 1.488-.4 1.624-.22.136-.4.867-.4 1.624 0 .757-.18 1.376-.4 1.376-.22 0-.4.54-.4 1.2 0 .66-.18 1.2-.4 1.2-.22 0-.4.72-.4 1.6v1.6h2c1.1 0 2-.18 2-.4 0-.22.18-.4.4-.4.219 0 1.141-.72 2.048-1.6.907-.88 1.857-1.6 2.112-1.6.255 0 .723-.36 1.04-.8.317-.44.785-.8 1.04-.8s1.205-.72 2.112-1.6c.907-.88 1.836-1.6 2.065-1.6.385 0 .798-.282 2.105-1.437.272-.24.91-.659 1.418-.931 1.123-.601 2.144-1.421 3.9-3.132.733-.715 1.537-1.3 1.786-1.3.249 0 .957-.54 1.574-1.2.617-.66 1.337-1.2 1.6-1.2.263 0 .983-.54 1.6-1.2.617-.66 1.337-1.2 1.6-1.2.263 0 .983-.54 1.6-1.2.617-.66 1.319-1.2 1.56-1.2.242 0 .44-.18.44-.4 0-.22.23-.4.512-.4.281 0 .771-.36 1.088-.8.317-.44.807-.8 1.088-.8.282 0 .512-.18.512-.4 0-.22.276-.4.613-.4.336 0 .713-.263.837-.585.123-.321.576-.696 1.007-.833.431-.137 1.398-.864 2.15-1.615.751-.752 1.565-1.367 1.808-1.367.727 0 1.585-1.083 1.585-2 0-2.082 1.418-2-34.771-2-20.428 0-33.629.146-33.629.371m62.4 3.229c0 .22-.32.4-.712.4-.391 0-.971.36-1.288.8-.317.44-.825.8-1.128.8-.303 0-1.03.495-1.614 1.1-.585.605-1.692 1.446-2.461 1.87-.768.423-1.487.882-1.597 1.019-.11.137-.83.682-1.6 1.211-.77.529-1.49 1.069-1.6 1.2-.11.131-.83.671-1.6 1.2-.77.529-1.691 1.286-2.047 1.681-.356.395-.779.719-.939.719-.161 0-.797.54-1.414 1.2-.617.66-1.369 1.2-1.672 1.2-.303 0-.811.36-1.128.8-.317.44-.769.8-1.004.8-.236 0-1.224.72-2.196 1.6-.972.88-1.928 1.6-2.124 1.6-.195 0-.859.54-1.476 1.2-.617.66-1.377 1.2-1.691 1.2-.313 0-.992.45-1.509 1-.517.55-1.112 1-1.323 1-.211 0-.744.405-1.185.9l-.803.9.263-1.1c.145-.605.374-1.91.51-2.9s.402-1.8.592-1.8c.19 0 .346-.63.346-1.4 0-.77.18-1.4.4-1.4.22 0 .4-.72.4-1.6 0-.88.18-1.6.4-1.6.22 0 .4-.463.4-1.029 0-1.157.827-2.171 1.771-2.171.803 0 .803-1.128 0-2.739-.447-.895-.911-1.261-1.6-1.261-.534 0-.971-.18-.971-.4 0-.22-.405-.403-.9-.406-.495-.003-1.62-.265-2.5-.582-.88-.317-2.185-.585-2.9-.594-.715-.01-1.3-.198-1.3-.418 0-.22-.349-.4-.776-.4-.427 0-.888-.18-1.024-.4-.136-.22-.867-.4-1.624-.4-.757 0-1.376-.18-1.376-.4 0-.22-.54-.4-1.2-.4-.66 0-1.2-.18-1.2-.4 0-.22-.54-.4-1.2-.4-.66 0-1.2-.18-1.2-.4 0-.22-.529-.4-1.176-.4-.647 0-1.288-.18-1.424-.4-.164-.265 8.463-.4 25.576-.4 16.949 0 25.824.137 25.824.4M212 49.157c0 .258-.751.443-1.8.443-.99 0-1.8.18-1.8.4 0 .22-.72.4-1.6.4-.88 0-1.6.18-1.6.4 0 .22-.9.4-2 .4s-2 .18-2 .4c0 .22-.72.4-1.6.4-.88 0-1.6.18-1.6.4 0 .22-.799.4-1.776.4s-1.888.18-2.024.4c-.136.22-.856.4-1.6.4-.744 0-1.464.18-1.6.4-.136.22-.867.4-1.624.4-.757 0-1.376.18-1.376.4 0 .22-.72.4-1.6.4-.88 0-1.6.18-1.6.4 0 .22-.9.4-2 .4s-2 .18-2 .4c0 .22-.72.4-1.6.4-.88 0-1.6.18-1.6.4 0 .22-.619.4-1.376.4-.757 0-1.477.162-1.599.359-.122.198-1.483.486-3.025.641-1.542.155-2.903.443-3.025.641-.122.197-.831.359-1.575.359s-1.464.18-1.6.4c-.136.22-.856.4-1.6.4-.744 0-1.464.18-1.6.4-.136.22-.766.4-1.4.4-.634 0-1.252.16-1.373.356-.207.336-1.22.572-4.73 1.102-.826.124-1.602.387-1.723.584-.122.197-.74.358-1.374.358-.634 0-1.264.18-1.4.4-.136.22-.867.4-1.624.4-.757 0-1.376.18-1.376.4 0 .22-.54.4-1.2.4-.66 0-1.2.18-1.2.4 0 .22-.54.4-1.2.4-1.455 0-1.647 1.153-.4 2.4.833.833 2.4 1.094 2.4.4 0-.22.619-.4 1.376-.4.757 0 1.488-.18 1.624-.4.136-.22.766-.4 1.4-.4.634 0 1.264-.18 1.4-.4.136-.22.687-.4 1.224-.4.537 0 .976-.18.976-.4 0-.22.72-.4 1.6-.4.88 0 1.6-.18 1.6-.4 0-.22.619-.4 1.376-.4.757 0 1.488-.18 1.624-.4.136-.22.867-.4 1.624-.4.757 0 1.376-.18 1.376-.4 0-.22.72-.4 1.6-.4.88 0 1.6-.18 1.6-.4 0-.22.72-.4 1.6-.4.88 0 1.6-.18 1.6-.4 0-.22.72-.4 1.6-.4.88 0 1.6-.18 1.6-.4 0-.22.63-.4 1.4-.4.77 0 1.4-.18 1.4-.4 0-.22.799-.4 1.776-.4s1.888-.18 2.024-.4c.136-.22.942-.4 1.79-.4.849 0 1.603-.141 1.677-.312.14-.33 6.792-1.688 8.268-1.688.476 0 .865-.162.865-.36 0-.198.765-.462 1.7-.587 4.089-.547 5.118-.759 5.326-1.095.122-.197.931-.358 1.798-.358s1.576-.18 1.576-.4c0-.22.799-.4 1.776-.4s1.876-.161 1.998-.358c.208-.336 1.237-.548 5.326-1.095.935-.125 1.7-.394 1.7-.597 0-.203.45-.541 1-.75 1.263-.48 1.449-2.4.233-2.4-.422 0-1.052-.109-1.4-.243-.348-.133-.633-.043-.633.2M133.4 68.8c-.136.22-.597.4-1.024.4-.427 0-.776.18-.776.4 0 .22-.72.4-1.6.4-.88 0-1.6.18-1.6.4 0 .22-.54.4-1.2.4-.66 0-1.2.18-1.2.4 0 .22-.45.4-1 .4s-1 .18-1 .4c0 .22-.54.4-1.2.4-.66 0-1.2.18-1.2.4 0 .22-.54.4-1.2.4-.66 0-1.2.18-1.2.4 0 .22-.54.4-1.2.4-.66 0-1.2.18-1.2.4 0 .22-.446.4-.992.4-1.084 0-4.829 1.29-7.103 2.447-.382.194-.967.353-1.3.353-.333 0-.605.147-.605.328 0 .18-.9.572-2 .872-1.1.3-2 .692-2 .872 0 .181-.36.328-.8.328-.44 0-.8.18-.8.4 0 .22-.36.4-.8.4-.44 0-.8.18-.8.4 0 .22-.36.4-.8.4-.44 0-.8.18-.8.4 0 .22-.36.4-.8.4-.44 0-.8.18-.8.4 0 .22-.36.4-.8.4-.44 0-.8.15-.8.332 0 .183-.495.587-1.1.898-.605.31-1.391.881-1.747 1.267-.356.387-.765.703-.91.703-.54 0-3.843 3.602-3.843 4.189 0 .336-.18.611-.4.611-.223 0-.4 1.078-.4 2.435v2.434l2.254 2.166c1.239 1.191 2.499 2.165 2.8 2.165.3 0 .546.18.546.4 0 .22.27.4.6.4.33 0 .6.18.6.4 0 .22.27.4.6.4.33 0 .6.18.6.4 0 .22.45.4 1 .4s1 .18 1 .4c0 .22.36.4.8.4.44 0 .8.18.8.4 0 .22.36.4.8.4.44 0 .8.18.8.4 0 .22.54.4 1.2.4.66 0 1.2.18 1.2.4 0 .22.54.4 1.2.4.66 0 1.2.18 1.2.4 0 .22.54.4 1.2.4.66 0 1.2.157 1.2.348 0 .191.765.455 1.7.587.935.131 2.586.486 3.67.788l1.969.55-2.217 1.085c-1.219.596-2.593 1.435-3.053 1.863-.459.429-1.113.779-1.452.779-.339 0-.617.18-.617.4 0 .22-.257.4-.571.4-1.089 0-7.429 6.623-7.429 7.76 0 .572-.18 1.04-.4 1.04-.231 0-.4 1.267-.4 3s.169 3 .4 3c.22 0 .4.36.4.8 0 .44.18.8.4.8.22 0 .4.235.4.522 0 .657 2.555 3.478 3.15 3.478.244 0 .94.498 1.547 1.108.606.609 1.598 1.359 2.203 1.667.605.308 1.1.71 1.1.893 0 .182.36.332.8.332.44 0 .8.18.8.4 0 .22.272.4.605.4.333 0 .963.18 1.4.4l1.59.8c.437.22 1.146.4 1.576.4.43 0 .893.18 1.029.4.136.22.732.412 1.324.427 1.357.034.627.386-2.924 1.408-1.32.38-2.571.842-2.78 1.028-.209.185-.704.337-1.1.337-.396 0-.72.18-.72.4 0 .22-.36.4-.8.4-.44 0-.8.18-.8.4 0 .22-.36.4-.8.4-.44 0-.8.18-.8.4 0 .22-.36.4-.8.4-.44 0-.8.18-.8.4 0 .22-.36.4-.8.4-.44 0-.8.15-.8.332 0 .183-.493.588-1.095.9-1.509.782-4.505 3.813-4.505 4.557 0 .336-.18.611-.4.611-.22 0-.4.54-.4 1.2 0 .66-.18 1.2-.4 1.2-.22 0-.4.81-.4 1.8s.18 1.8.4 1.8c.22 0 .4.54.4 1.2 0 .66.18 1.2.4 1.2.22 0 .4.241.4.536 0 .668 3.354 4.264 3.977 4.264.251 0 .843.36 1.315.8.472.44 1.095.8 1.383.8.289 0 .525.18.525.4 0 .22.36.4.8.4.44 0 .8.18.8.4 0 .22.36.4.8.4.44 0 .8.18.8.4 0 .22.272.4.605.4.333 0 .918.159 1.3.353.382.195 1.235.576 1.895.847.66.271 1.513.652 1.895.847a3.88 3.88 0 0 0 1.476.353c.43 0 .893.18 1.029.4.136.22.766.4 1.4.4.634 0 1.255.166 1.381.369.125.202 1.396.493 2.823.646 3.023.324 3.356.803.796 1.145l-3.6.48c-.99.132-1.8.384-1.8.56 0 .176-.765.419-1.7.541-3.363.439-4.7.753-4.7 1.103 0 .196-.81.356-1.8.356s-1.8.18-1.8.4c0 .22-.72.4-1.6.4-.88 0-1.6.18-1.6.4 0 .22-.72.4-1.6.4-.88 0-1.6.18-1.6.4 0 .22-.54.4-1.2.4-.66 0-1.2.18-1.2.4 0 .22-.54.4-1.2.4-.66 0-1.2.18-1.2.4 0 .22-.324.4-.72.4-2.284 0-3.758 2.162-2.4 3.52.58.58 2.32.64 2.32.08 0-.22.439-.4.976-.4.537 0 1.088-.18 1.224-.4.136-.22.676-.4 1.2-.4.524 0 1.064-.18 1.2-.4.136-.22.777-.4 1.424-.4.647 0 1.176-.18 1.176-.4 0-.22.54-.4 1.2-.4.66 0 1.2-.18 1.2-.4 0-.22.619-.4 1.376-.4.757 0 1.488-.18 1.624-.4.136-.22.867-.4 1.624-.4.757 0 1.376-.18 1.376-.4 0-.22.9-.4 2-.4s2-.18 2-.4c0-.22.709-.4 1.576-.4.867 0 1.688-.18 1.824-.4.136-.22.856-.4 1.6-.4.744 0 1.464-.18 1.6-.4.136-.22.867-.4 1.624-.4.757 0 1.376-.18 1.376-.4 0-.22.81-.4 1.8-.4s1.8-.18 1.8-.4c0-.222 1.067-.4 2.4-.4s2.4.178 2.4.4c0 .22.72.4 1.6.4.88 0 1.6.18 1.6.4 0 .22.619.4 1.376.4.757 0 1.488.18 1.624.4.136.22.777.4 1.424.4.647 0 1.176.18 1.176.4 0 .22.72.4 1.6.4.88 0 1.6.18 1.6.4 0 .22.81.4 1.8.4s1.8.18 1.8.4c0 .22.72.4 1.6.4.88 0 1.6.18 1.6.4 0 .22.72.4 1.6.4.88 0 1.6.18 1.6.4 0 .22.72.4 1.6.4.88 0 1.6.18 1.6.4 0 .22.81.4 1.8.4s1.8.18 1.8.4c0 .22.9.4 2 .4s2 .177 2 .394c0 .241.907.299 2.345.149 1.555-.163 2.438-.094 2.623.206.154.248 1.068.451 2.032.451s1.864.18 2 .4c.136.22 1.126.4 2.2.4 1.074 0 2.05.157 2.169.35.119.192 1.165.461 2.324.596 4.895.572 9.848 1.688 10.317 2.325.116.157 2.327.412 4.913.567 2.587.154 4.798.434 4.914.621.116.188 1.46.341 2.987.341 1.584 0 2.776.172 2.776.4 0 .231 1.267.4 3 .4s3 .169 3 .4c0 .233 1.325.4 3.176.4 1.747 0 3.288.18 3.424.4.136.22 1.407.4 2.824.4 1.451 0 2.576.175 2.576.4 0 .235 1.4.4 3.4.4s3.4.165 3.4.4c0 .238 1.525.4 3.776.4 2.087 0 3.887.179 4.024.4.137.221 1.937.4 4.024.4 2.454 0 3.776.152 3.776.435 0 .294 1.656.417 5.1.378 5.939-.067 11.8.487 12.016 1.135.103.309 2.031.452 6.094.452 3.53 0 6.043.162 6.19.4.34.549 40.46.549 40.8 0 .136-.22 1.666-.4 3.4-.4s3.264-.18 3.4-.4c.136-.22.957-.4 1.824-.4.867 0 1.576-.18 1.576-.4 0-.22.9-.4 2-.4s2-.18 2-.4c0-.22.54-.4 1.2-.4.66 0 1.2-.18 1.2-.4 0-.22.405-.404.9-.409.495-.005 1.35-.361 1.9-.791.55-.43 1.141-.786 1.313-.791 2.167-.062 6.078-9.209 3.937-9.209-.192 0-.457-.533-.587-1.184-.266-1.33-2.858-4.416-3.71-4.416-.304 0-.553-.159-.553-.353 0-.195-.315-.457-.7-.583-.385-.126-1.47-.687-2.411-1.246-.941-.56-2.066-1.018-2.5-1.018-.434 0-.789-.18-.789-.4 0-.22-.54-.4-1.2-.4-.66 0-1.2-.162-1.2-.361 0-.198-1.08-.486-2.4-.639-1.32-.153-2.4-.441-2.4-.639 0-.199-.81-.361-1.8-.361s-1.8-.18-1.8-.4c0-.22-.9-.4-2-.4s-2-.18-2-.4c0-.229-1.2-.4-2.8-.4-1.6 0-2.8-.171-2.8-.4 0-.222-1.067-.4-2.4-.4s-2.4-.178-2.4-.4c0-.238-1.525-.4-3.776-.4-2.087 0-3.887-.179-4.024-.4-.147-.239-2.73-.4-6.4-.4-3.67 0-6.253-.161-6.4-.4-.153-.247-3.663-.4-9.2-.4-5.537 0-9.047-.153-9.2-.4-.146-.237-2.604-.4-6.024-.4H254.8v1.056c0 1.918.787 2.117 8.42 2.131 3.861.007 7.191.182 7.4.389.209.206 3.62.474 7.58.595 7.891.241 16.984.786 23.2 1.391 2.2.214 6.385.61 9.3.881 2.915.27 5.3.642 5.3.824 0 .183.619.333 1.376.333.757 0 1.488.18 1.624.4.136.22.957.4 1.824.4.867 0 1.576.18 1.576.4 0 .22.619.4 1.376.4.757 0 1.488.18 1.624.4.136.22.687.4 1.224.4.537 0 .976.18.976.4 0 .22.362.4.805.4.749 0 2.336.699 2.795 1.232.11.128.785.487 1.5.798.715.311 1.3.701 1.3.868 0 .166.278.302.618.302.8 0 2.582 1.782 2.582 2.582 0 .34.18.618.4.618.22 0 .4.36.4.8 0 .44.18.8.4.8.22 0 .4.36.4.8 0 .44-.18.8-.4.8-.22 0-.4.278-.4.618 0 .993-1.772 2.489-4.275 3.61-1.279.572-2.638 1.205-3.02 1.406-.382.201-1.237.366-1.9.366-.663 0-1.205.18-1.205.4 0 .22-.99.4-2.2.4-1.21 0-2.2.18-2.2.4 0 .233-1.333.4-3.2.4-1.76 0-3.2.171-3.2.38 0 .362-4.691.566-17.941.778-3.158.051-5.843-.009-5.967-.133-.124-.124-3.695-.225-7.935-.225-4.708 0-7.806-.156-7.957-.4-.147-.238-2.663-.4-6.2-.4-3.537 0-6.053-.162-6.2-.4-.372-.601-1.683-.481-1.936.178-.174.454-.506.497-1.54.2-.725-.208-2.336-.378-3.579-.378-1.595 0-2.324-.169-2.48-.575-.166-.432-1.292-.624-4.543-.774-2.377-.11-5.942-.387-7.922-.616-1.98-.23-5.13-.597-7-.816-1.87-.22-5.29-.575-7.6-.789-2.31-.215-5.46-.575-7-.802-1.54-.227-4.015-.416-5.5-.42-1.528-.005-2.7-.182-2.7-.408 0-.226-1.133-.4-2.6-.4s-2.6-.174-2.6-.4c0-.229-1.2-.4-2.8-.4-1.6 0-2.8-.171-2.8-.4 0-.231-1.259-.4-2.976-.4-1.637 0-3.088-.18-3.224-.4-.136-.22-1.317-.4-2.624-.4-1.307 0-2.376-.172-2.376-.382 0-.211-1.301-.367-2.9-.348-1.595.019-3.935-.169-5.2-.418a397.862 397.862 0 0 0-4.4-.836c-1.155-.212-3.09-.581-4.3-.821a90.753 90.753 0 0 0-3.8-.665c-.88-.126-1.955-.477-2.389-.78-.434-.302-1.199-.55-1.7-.55-.501 0-.911-.18-.911-.4 0-.22-.619-.4-1.376-.4-.757 0-1.488-.18-1.624-.4-.136-.22-.957-.4-1.824-.4-.867 0-1.576-.18-1.576-.4 0-.22-.81-.4-1.8-.4s-1.8-.18-1.8-.4c0-.22-.709-.4-1.576-.4-.867 0-1.688-.18-1.824-.4-.136-.22-.946-.4-1.8-.4-.854 0-1.664-.18-1.8-.4-.136-.22-.777-.4-1.424-.4-.647 0-1.176-.18-1.176-.4 0-.22-.72-.4-1.6-.4-.88 0-1.6-.18-1.6-.4 0-.22-.619-.4-1.376-.4-.757 0-1.488-.18-1.624-.4-.152-.247.529-.4 1.776-.4 1.113 0 2.024-.152 2.024-.337 0-.185 4.275-.546 9.5-.802s10.76-.599 12.3-.763l2.8-.298V171l-2.358-.122c-1.297-.067-2.548.068-2.78.3-.244.244-2.247.422-4.742.422-2.613 0-4.32.158-4.32.4 0 .243-1.8.4-4.6.4s-4.6.157-4.6.4c0 .237-1.467.4-3.6.4s-3.6.163-3.6.4c0 .244-1.867.4-4.8.4s-4.8-.156-4.8-.4c0-.22-.619-.4-1.376-.4-.757 0-1.488-.18-1.624-.4-.136-.22-.867-.4-1.624-.4-.757 0-1.376-.18-1.376-.4 0-.22-.45-.4-1-.4s-1-.18-1-.4c0-.22-.63-.4-1.4-.4-.77 0-1.4-.18-1.4-.4 0-.22-.54-.4-1.2-.4-.66 0-1.2-.18-1.2-.4 0-.22-.36-.4-.8-.4-.44 0-.8-.18-.8-.4 0-.22-.54-.4-1.2-.4-.66 0-1.2-.18-1.2-.4 0-.22-.36-.4-.8-.4-.44 0-.8-.136-.8-.302 0-.167-.585-.558-1.3-.87-.715-.312-1.591-.896-1.947-1.298-.356-.401-.869-.73-1.14-.73-.74 0-4.013-3.621-4.013-4.44 0-.392-.18-.824-.4-.96-.22-.136-.4-.676-.4-1.2 0-.524.18-1.064.4-1.2.22-.136.4-.568.4-.96 0-.737 3.24-4.44 3.885-4.44.2 0 .713-.325 1.14-.722.426-.398 1.36-.981 2.075-1.298.715-.316 1.3-.711 1.3-.878 0-.166.36-.302.8-.302.44 0 .8-.18.8-.4 0-.22.439-.4.976-.4.537 0 1.088-.18 1.224-.4.136-.22.597-.4 1.024-.4.427 0 .776-.18.776-.4 0-.22.54-.4 1.2-.4.66 0 1.2-.18 1.2-.4 0-.22.54-.4 1.2-.4.66 0 1.2-.18 1.2-.4 0-.22.63-.4 1.4-.4.77 0 1.4-.18 1.4-.4 0-.231 1.267-.4 3-.4s3 .169 3 .4c0 .222 1.067.4 2.4.4s2.4.178 2.4.4c0 .226 1.133.4 2.6.4s2.6.174 2.6.4c0 .222 1.067.4 2.4.4s2.4.178 2.4.4c0 .226 1.133.4 2.6.4s2.6.174 2.6.4c0 .229 1.2.4 2.8.4 1.6 0 2.8.171 2.8.4 0 .233 1.333.4 3.2.4 2.039 0 3.2.158 3.2.435 0 .29 1.436.418 4.3.384 6.841-.082 18.156 1.11 19.08 2.011.209.203 2.943.37 6.076.37 3.367 0 5.798.164 5.944.4.15.243 3.13.4 7.6.4s7.45.157 7.6.4c.153.248 3.711.4 9.344.4 5.234 0 9.258.162 9.477.381.21.21 3.531.451 7.38.535 3.85.085 7.518.299 8.151.476.885.247 1.238.169 1.52-.335.46-.822 2.066-.855 2.728-.057.409.493 1.794.6 7.769.6 4.45 0 7.431.16 7.683.412.683.683 38.814-.118 39.527-.831.209-.209 1.695-.381 3.301-.381 1.68 0 2.92-.17 2.92-.4 0-.229 1.2-.4 2.8-.4 1.6 0 2.8-.171 2.8-.4 0-.22.9-.4 2-.4s2-.18 2-.4c0-.22.619-.4 1.376-.4.757 0 1.488-.18 1.624-.4.136-.22.687-.4 1.224-.4.537 0 .976-.18.976-.4 0-.22.36-.4.8-.4.44 0 .8-.18.8-.4 0-.22.416-.4.925-.4.508 0 1.311-.36 1.783-.8.472-.44 1.054-.8 1.293-.8.656 0 2.399-1.877 2.399-2.582 0-.34.18-.618.4-.618.231 0 .4-1.267.4-3s-.169-3-.4-3c-.22 0-.4-.276-.4-.613 0-.796-2.591-3.387-3.387-3.387-.337 0-.614-.135-.616-.3-.005-.447-2.023-1.3-3.077-1.3-.506 0-.92-.18-.92-.4 0-.22-.63-.4-1.4-.4-.77 0-1.4-.18-1.4-.4 0-.222-1.067-.4-2.4-.4-1.32 0-2.4-.166-2.4-.37 0-.378-2.969-.655-11.4-1.06-2.64-.127-4.971-.397-5.18-.601-.209-.203-3.033-.369-6.276-.369-3.5 0-5.997-.163-6.144-.4-.342-.554-47.66-.55-48.002.004-1.194 1.931-.708 1.996 14.805 1.996 9.268 0 14.64.145 14.797.4.153.247 3.663.4 9.2.4 5.537 0 9.047.153 9.2.4.147.238 2.663.4 6.2.4 3.537 0 6.053.162 6.2.4.143.232 2.33.4 5.2.4s5.057.168 5.2.4c.136.22 1.587.4 3.224.4 1.717 0 2.976.169 2.976.4 0 .22.9.4 2 .4s2 .18 2 .4c0 .22.529.4 1.176.4.647 0 1.288.18 1.424.4.136.22.687.4 1.224.4.537 0 .976.18.976.4 0 .22.198.4.44.4 2.605 0 4.127 5.362 2.06 7.261-1.663 1.528-3.548 2.739-4.262 2.739-.351 0-.638.18-.638.4 0 .22-.54.4-1.2.4-.66 0-1.2.18-1.2.4 0 .22-.529.4-1.176.4-.647 0-1.288.18-1.424.4-.136.22-.867.4-1.624.4-.757 0-1.376.18-1.376.4 0 .225-1.125.4-2.576.4-1.417 0-2.688.18-2.824.4-.136.22-1.767.4-3.624.4-1.984 0-3.376.165-3.376.4 0 .251-2.507.4-6.72.4-4.069 0-6.882.162-7.131.411-.274.274-4.682.338-13.18.193-7.023-.12-17.171-.282-22.551-.359-6.813-.097-9.829-.277-9.934-.592-.107-.321-3.005-.453-9.917-.453-6.245 0-9.767-.144-9.767-.4 0-.254-3.173-.4-8.72-.4-5.007 0-8.883-.163-9.102-.382-.21-.21-2.946-.408-6.08-.44-3.134-.031-5.698-.219-5.698-.417 0-.199-2.43-.361-5.4-.361s-5.4-.156-5.4-.348c0-.191-2.655-.339-5.9-.328-7.422.024-12.735-.443-13.341-1.174-.29-.349-1.289-.55-2.728-.55-1.249 0-2.442-.165-2.651-.366-.209-.202-1.46-.468-2.78-.592l-4.8-.452c-1.32-.124-2.76-.39-3.2-.59-.44-.2-1.79-.453-3-.562-1.21-.108-3.82-.415-5.8-.682-1.98-.267-4.455-.501-5.5-.521-3.396-.063-2.168-.642 2.7-1.273.88-.114 1.96-.367 2.4-.562.44-.195 1.52-.446 2.4-.557.88-.111 2.59-.404 3.8-.651a51.648 51.648 0 0 1 4.3-.658c1.155-.114 2.1-.371 2.1-.571 0-.2.979-.363 2.176-.363s2.288-.18 2.424-.4c.136-.22 1.387-.4 2.781-.4 1.941 0 2.59-.148 2.776-.633.425-1.107.263-2.074-.39-2.324-1.029-.395-4.167-.277-4.167.157 0 .229-1.2.4-2.8.4-1.6 0-2.8.171-2.8.4 0 .222-1.067.4-2.4.4s-2.4.178-2.4.4c0 .22-.99.4-2.2.4-1.21 0-2.2.18-2.2.4 0 .22-.889.4-1.976.4s-2.088.18-2.224.4c-.136.22-1.047.4-2.024.4-.977 0-1.776.18-1.776.4 0 .22-.9.4-2 .4s-2 .18-2 .4c0 .22-.81.4-1.8.4s-1.8.18-1.8.4c0 .229-1.2.4-2.8.4-1.6 0-2.8-.171-2.8-.4 0-.22-.72-.4-1.6-.4-.88 0-1.6-.18-1.6-.4 0-.22-.54-.4-1.2-.4-.66 0-1.2-.18-1.2-.4 0-.22-.36-.4-.8-.4-.44 0-.8-.18-.8-.4 0-.22-.54-.4-1.2-.4-.66 0-1.2-.18-1.2-.4 0-.22-.236-.4-.525-.4-.288 0-.911-.36-1.383-.8-.472-.44-1.045-.8-1.272-.8-.227 0-.929-.54-1.56-1.2-.631-.66-1.309-1.2-1.508-1.2-.442 0-1.643-1.538-2.852-3.649-.916-1.601-1.248-4.751-.5-4.751.22 0 .4-.287.4-.637 0-.656 4.852-5.763 5.475-5.763.191 0 .608-.36.925-.8.317-.44.857-.8 1.2-.8.343 0 .883-.36 1.2-.8.317-.44.897-.8 1.288-.8.392 0 .712-.18.712-.4 0-.22.36-.4.8-.4.44 0 .8-.18.8-.4 0-.22.36-.4.8-.4.44 0 .8-.18.8-.4 0-.22.36-.4.8-.4.44 0 .8-.18.8-.4 0-.233 1.333-.4 3.2-.4 1.867 0 3.2.167 3.2.4 0 .231 1.267.4 3 .4s3 .169 3 .4 1.259.4 2.976.4c1.637 0 3.088.18 3.224.4.144.233 2.382.4 5.357.4 2.81 0 5.236.127 5.391.281.155.155 9.76.337 21.345.404 13.3.077 21.154.268 21.309.518.31.501 65.118.449 65.429-.052.119-.193 3.075-.351 6.569-.351 3.804 0 6.452-.161 6.6-.4.136-.22 1.317-.4 2.624-.4 1.317 0 2.376-.178 2.376-.4 0-.22.63-.4 1.4-.4.77 0 1.4-.18 1.4-.4 0-.22.72-.4 1.6-.4.88 0 1.6-.18 1.6-.4 0-.22.349-.4.776-.4.427 0 .888-.18 1.024-.4.136-.22.687-.4 1.224-.4.537 0 .976-.18.976-.4 0-.22.278-.4.617-.4 1.577 0 4.183-3.031 4.183-4.865 0-2.079-1.292-4.335-2.483-4.335-.297 0-.8-.36-1.117-.8-.317-.44-.897-.8-1.288-.8-.392 0-.712-.18-.712-.4 0-.22-.439-.4-.976-.4-.537 0-1.066-.144-1.175-.321-.109-.176-1.11-.569-2.224-.872-1.114-.303-2.025-.699-2.025-.879 0-.181-.619-.328-1.376-.328-.757 0-1.488-.18-1.624-.4-.136-.22-.856-.4-1.6-.4-.744 0-1.464-.18-1.6-.4-.136-.22-1.047-.4-2.024-.4-.977 0-1.776-.16-1.776-.355 0-.195-1.215-.46-2.7-.588a127.28 127.28 0 0 1-5.5-.624c-1.54-.216-4.375-.401-6.3-.412-2.053-.013-3.5-.186-3.5-.421 0-.248-2.2-.4-5.8-.4-3.6 0-5.8-.152-5.8-.4 0-.223-1.075-.4-2.425-.4h-2.426l.126 1.3c.121 1.257.191 1.304 2.125 1.424 1.1.068 2.171.293 2.38.5.209.207 2.774.376 5.7.376 3.28 0 5.32.153 5.32.4 0 .24 1.6.4 4 .4s4 .16 4 .4c0 .233 1.333.4 3.2.4 1.867 0 3.2.167 3.2.4 0 .22.99.4 2.2.4 1.21 0 2.2.18 2.2.4 0 .22.72.4 1.6.4.88 0 1.6.18 1.6.4 0 .22.619.4 1.376.4.757 0 1.488.18 1.624.4.136.22.777.4 1.424.4.647 0 1.176.18 1.176.4 0 .22.45.4 1 .4s1 .18 1 .4c0 .22.54.4 1.2.4.66 0 1.2.18 1.2.4 0 .22.236.4.525.4.288 0 .911.36 1.383.8.472.44 1.091.801 1.375.803.284.002.733.469.997 1.038.527 1.135-.744 2.959-2.062 2.959-.34 0-.618.18-.618.4 0 .22-.27.4-.6.4-.33 0-.6.18-.6.4 0 .22-.45.4-1 .4s-1 .162-1 .361c0 .198-1.08.486-2.401.639-1.32.153-2.501.441-2.623.639-.123.199-1.192.361-2.376.361s-2.264.18-2.4.4c-.136.22-1.821.4-3.744.4-2.033 0-3.682.186-3.941.445-.592.592-82.205.549-83.313-.044-1.071-.573-10.679-.524-11.038.057-.301.487-6.554.273-15.164-.518-2.42-.223-6.56-.558-9.2-.745-12.535-.887-17.023-1.334-16.528-1.648.29-.184 1.023-.338 1.628-.341.605-.003 1.1-.186 1.1-.406 0-.22.54-.4 1.2-.4.66 0 1.2-.18 1.2-.4 0-.22.54-.4 1.2-.4.66 0 1.2-.18 1.2-.4 0-.22.529-.4 1.176-.4.647 0 1.288-.18 1.424-.4.136-.22.687-.4 1.224-.4.537 0 .976-.18.976-.4 0-.22.619-.4 1.376-.4.757 0 1.488-.18 1.624-.4.136-.22.867-.4 1.624-.4.757 0 1.376-.18 1.376-.4 0-.22.72-.4 1.6-.4.88 0 1.6-.18 1.6-.4 0-.22.636-.4 1.413-.4 1.632 0 2.12-.75 1.448-2.226-.471-1.034-3.707-1.47-4.261-.574-.136.22-.867.4-1.624.4-.757 0-1.376.18-1.376.4 0 .22-.54.4-1.2.4-.66 0-1.2.18-1.2.4 0 .22-.72.4-1.6.4-.88 0-1.6.18-1.6.4 0 .22-.54.4-1.2.4-.66 0-1.2.18-1.2.4 0 .22-.619.4-1.376.4-.757 0-1.488.18-1.624.4-.136.22-.687.4-1.224.4-.537 0-.976.18-.976.4 0 .22-.45.4-1 .4s-1 .18-1 .4c0 .22-.439.4-.976.4-.537 0-1.088.18-1.224.4-.136.22-.687.4-1.224.4-.537 0-.976.18-.976.4 0 .22-.54.4-1.2.4-.66 0-1.2.18-1.2.4 0 .22-.9.4-2 .4s-2-.18-2-.4c0-.22-.72-.4-1.6-.4-.88 0-1.6-.18-1.6-.4 0-.22-.72-.4-1.6-.4-.88 0-1.6-.18-1.6-.4 0-.22-.63-.4-1.4-.4-.77 0-1.4-.18-1.4-.4 0-.22-.362-.4-.805-.4-.443 0-1.163-.18-1.6-.4l-1.59-.8c-.437-.22-1.157-.4-1.6-.4-.443 0-.805-.18-.805-.4 0-.22-.36-.4-.8-.4-.44 0-.8-.18-.8-.4 0-.22-.234-.4-.52-.4-.736 0-2.673-.941-2.677-1.3-.002-.165-.363-.3-.803-.3-.44 0-.8-.18-.8-.4 0-.22-.291-.4-.646-.4-.996 0-3.754-3.24-3.754-4.411 0-1.604 2.645-4.832 4.42-5.395.429-.137.78-.416.78-.621 0-.205.236-.373.525-.373.288 0 .911-.36 1.383-.8.472-.44 1.136-.8 1.475-.8.339 0 .617-.18.617-.4 0-.22.36-.4.8-.4.44 0 .8-.18.8-.4 0-.22.36-.4.8-.4.44 0 .8-.18.8-.4 0-.22.36-.4.8-.4.44 0 .8-.18.8-.4 0-.22.234-.4.52-.4.736 0 2.673-.941 2.677-1.3.002-.165.453-.3 1.003-.3.55 0 1-.18 1-.4 0-.22.54-.4 1.2-.4.66 0 1.2-.18 1.2-.4 0-.22.349-.4.776-.4.427 0 .888-.18 1.024-.4.136-.22.687-.4 1.224-.4.537 0 .976-.18.976-.4 0-.22.54-.4 1.2-.4.66 0 1.2-.18 1.2-.4 0-.22.439-.4.976-.4.537 0 1.088-.18 1.224-.4.136-.22.687-.4 1.224-.4.537 0 .976-.18.976-.4 0-.22.438-.4.972-.4.987 0 7.051-1.777 8.323-2.439.382-.198 1.147-.361 1.7-.361.553 0 1.005-.167 1.005-.372s.403-.43.896-.5c1.139-.163 1.381-1.359.477-2.358-.742-.819-2.362-1.036-2.773-.37M202 90c0 .247-2.059.4-5.376.4-3.153 0-5.479.165-5.624.4-.136.22-1.722.404-3.524.408-1.802.004-4.446.199-5.876.432-2.538.413-6.98.975-11 1.391-1.1.114-2.36.37-2.8.567-.44.198-1.61.452-2.6.564-5.865.662-7.126 1.399-5.582 3.26.552.665 4.782.823 4.782.178 0-.22.9-.4 2-.4s2-.18 2-.4c0-.22.9-.4 2-.4s2-.18 2-.4c0-.226 1.133-.4 2.6-.4s2.6-.174 2.6-.4c0-.233 1.333-.4 3.2-.4 1.867 0 3.2-.167 3.2-.4 0-.239 1.533-.4 3.8-.4s3.8-.161 3.8-.4c0-.245 1.933-.4 5-.4s5-.155 5-.4c0-.256 3.6-.4 10-.4 10.863 0 10.61.056 9.757-2.167C221.068 89.478 202 89.249 202 90m10.2 38c-.149.241-2.911.4-6.944.4-3.683 0-6.867.166-7.076.368-.209.202-2.36.474-4.78.604-9.478.51-11.614.698-11.98 1.056-.209.205-1.694.372-3.3.372h-2.92v1.357c0 .869.228 1.445.633 1.6 1.029.395 4.167.277 4.167-.157 0-.241 1.659-.4 4.176-.4 2.353 0 4.285-.175 4.424-.4.143-.232 2.337-.4 5.224-.4 3.051 0 4.976-.155 4.976-.4 0-.25 2.459-.4 6.576-.4 3.953 0 6.675-.16 6.824-.4.153-.248 3.796-.4 9.6-.4s9.447-.152 9.6-.4c.136-.22 1.227-.4 2.424-.4 2.354 0 3.111-1.072 1.402-1.986-1.032-.553-22.685-.566-23.026-.014m-1.6 40.8c-.154.249-4.004.4-10.224.4-6.051 0-9.976.15-9.976.381 0 .209-1.125.434-2.5.5-2.176.104-2.515.226-2.618.946-.204 1.427 2.168 2.407 4.44 1.834 1.016-.255 4.773-.461 8.432-.461 3.968 0 6.697-.159 6.846-.4.158-.256 5.863-.4 15.8-.4 9.937 0 15.642-.144 15.8-.4.15-.243 3.071-.4 7.424-.4 7.539 0 7.605-.017 6.933-1.767-.291-.76-39.89-.988-40.357-.233M165.774 328c0 5.61.056 7.905.125 5.1a251.33 251.33 0 0 0 0-10.2c-.069-2.805-.125-.51-.125 5.1" fill="#acabac"/><path d="M228.6 33.6c.153.248-.588.4-1.953.4-1.21 0-2.311.18-2.447.4-.136.22-.597.4-1.024.4-.427 0-.776.18-.776.4 0 .22-.36.4-.8.4-.44 0-.8.18-.8.4 0 .22-.274.4-.609.4-.792 0-4.991 4.199-4.991 4.991 0 .335-.135.61-.3.612-.48.005-1.3 2.057-1.3 3.253 0 .603-.18 1.208-.4 1.344-.919.568-.451 2.6.6 2.6.803 0 1 .199 1 1.01 0 .709-.298 1.123-1 1.39-1.064.405-1.554 4.811-.6 5.4.22.136.4 1.396.4 2.8s.18 2.664.4 2.8c.22.136.4.957.4 1.824 0 .867.18 1.576.4 1.576.22 0 .4.979.4 2.176s.18 2.288.4 2.424c.22.136.4 1.047.4 2.024 0 .977.18 1.776.4 1.776.22 0 .4.54.4 1.2 0 .66.18 1.2.4 1.2.22 0 .4.9.4 2s.18 2 .4 2c.22 0 .4.72.4 1.6 0 .88.18 1.6.4 1.6.22 0 .4.54.4 1.2 0 .66.18 1.2.4 1.2.22 0 .4.72.4 1.6 0 1.101.174 1.6.557 1.6.755 0 1.043.892 1.043 3.233 0 1.082.18 1.967.4 1.967.22 0 .4.54.4 1.2 0 .66.18 1.2.4 1.2.22 0 .4.72.4 1.6 0 .88.18 1.6.4 1.6.22 0 .4.36.4.8 0 .44.16.8.356.8.196 0 .446.585.556 1.3.313 2.045.603 3.047 1.269 4.382.34.683.619 1.481.619 1.775 0 1.705 1.212 2.143 5.934 2.143h4.557l-.268-1.3a59.163 59.163 0 0 1-.488-2.8c-.12-.825-.363-1.5-.54-1.5-.177 0-.42-.945-.54-2.1-.402-3.858-.734-5.697-1.096-6.08-.197-.209-.359-.976-.359-1.705 0-.729-.18-1.683-.4-2.12l-.8-1.59c-.555-1.101-.5-2.698.1-2.941.39-.158.382-.286-.038-.58-.711-.5-.818-17.765-.111-18.001.25-.083.449-1.011.449-2.093 0-1.068.18-2.054.4-2.19.22-.136.4-.676.4-1.2 0-.524.18-1.064.4-1.2.22-.136.4-.687.4-1.224 0-.537.18-.976.4-.976.22 0 .4-.234.4-.52 0-.736.941-2.673 1.3-2.677.165-.002.3-.245.3-.541 0-.296.36-.864.8-1.262.44-.398.8-.89.8-1.093 0-.343 1.336-1.686 4.382-4.407.678-.605 1.499-1.1 1.825-1.1.326 0 .593-.18.593-.4 0-.22.54-.4 1.2-.4.66 0 1.2-.18 1.2-.4 0-.242 1.733-.4 4.4-.4 2.667 0 4.4.158 4.4.4 0 .22.54.4 1.2.4.66 0 1.2.146 1.2.325 0 .179.63.573 1.4.875.77.302 1.4.696 1.4.875 0 .179.32.325.712.325.391 0 .971.36 1.288.8.317.44.813.8 1.102.8.288 0 1.121.585 1.85 1.3 1.933 1.896 3.192 2.916 3.965 3.213.376.144.683.462.683.706 0 .244.72 1.135 1.6 1.981.88.846 1.6 1.744 1.6 1.997 0 .734 1.069 1.603 1.971 1.603.9 0 1.255-2.489.429-3-.22-.136-.4-.687-.4-1.224 0-.537-.135-.979-.3-.983-.165-.003-.834-1.083-1.486-2.4-.653-1.316-1.328-2.393-1.5-2.393-.173 0-.314-.254-.314-.565 0-.311-1.08-1.662-2.4-3.003-1.32-1.34-2.402-2.571-2.404-2.735-.007-.432-3.192-3.697-3.608-3.697-.193 0-.765-.412-1.27-.915-.531-.53-1.898-1.135-3.241-1.434-1.838-.41-2.399-.72-2.69-1.485-.202-.531-.642-.966-.977-.966-.336 0-.61-.18-.61-.4 0-.22-.36-.4-.8-.4-.44 0-.8-.18-.8-.4 0-.22-.439-.4-.976-.4-.537 0-1.088-.18-1.224-.4-.136-.22-.597-.4-1.024-.4-.427 0-.776-.143-.776-.318 0-.175-.675-.363-1.5-.418-.825-.054-1.56-.271-1.633-.482-.074-.21-.558-.382-1.077-.382-.518 0-1.054-.18-1.19-.4-.136-.22-.957-.4-1.824-.4-.867 0-1.576-.18-1.576-.4 0-.226-1.133-.4-2.6-.4s-2.6-.174-2.6-.4c0-.24-1.608-.4-4.024-.4-2.58 0-3.935.143-3.776.4m.88 80.654c-.431.431-.331 2.546.12 2.546.22 0 .4.416.4.925 0 .508.36 1.311.8 1.783.44.472.8 1.316.8 1.875 0 .559.18 1.017.4 1.017.22 0 .4.326.4.725 0 .398.362 1.112.803 1.586.442.475.841 1.307.886 1.851.048.583.449 1.155.98 1.397.693.315.961.871 1.167 2.425.147 1.109.424 2.016.616 2.016.191 0 .348.36.348.8 0 .44.135.801.3.803.359.004 1.3 1.941 1.3 2.677 0 .286.18.52.4.52.22 0 .4.236.4.525 0 .288.36.911.8 1.383.44.472.8 1.031.8 1.243 0 .575 1.355 2.844 1.7 2.846.165.002.3.363.3.803 0 .44.18.8.4.8.22 0 .4.54.4 1.2 0 .66.18 1.2.4 1.2.22 0 .4.54.4 1.2 0 .66.18 1.2.4 1.2.22 0 .4.341.4.757 0 1.055 2.407 1.802 2.955.917.214-.347-.619-3.071-1.081-3.533-.151-.151-.274-.694-.274-1.208 0-.513-.18-.933-.4-.933-.22 0-.4-.45-.4-1s-.18-1-.4-1c-.22 0-.4-.36-.4-.8 0-.44-.18-.8-.4-.8-.22 0-.4-.529-.4-1.176 0-.647-.18-1.288-.4-1.424-.22-.136-.4-.687-.4-1.224 0-.537-.18-.976-.4-.976-.22 0-.4-.36-.4-.8 0-.44-.18-.8-.4-.8-.22 0-.4-.72-.4-1.6 0-.88-.18-1.6-.4-1.6-.22 0-.4-.54-.4-1.2 0-.66-.168-1.2-.373-1.2-.609 0-.93-1.594-.441-2.184.312-.375.322-.626.033-.804-.23-.143-.419-.958-.419-1.812 0-.854-.18-1.664-.4-1.8-.22-.136-.4-.766-.4-1.4 0-.634-.18-1.264-.4-1.4-.22-.136-.4-.921-.4-1.744s-.166-1.667-.369-1.876c-.203-.209-.428-.92-.5-1.58l-.131-1.2-4.02-.113c-2.211-.062-4.146.013-4.3.167m17.187 39.213c-.41.41-.316 2.055.133 2.333.22.136.4.687.4 1.224 0 .537.18.976.4.976.22 0 .4.72.4 1.6 0 .88.18 1.6.4 1.6.22 0 .4.81.4 1.8s.18 1.8.4 1.8c.22 0 .4.63.4 1.4 0 .77.158 1.4.351 1.4.586 0 1.154 2.071 1.207 4.4.027 1.21.228 2.26.446 2.333.218.074.396.839.396 1.7 0 .862.18 1.567.4 1.567.22 0 .4 1.001.4 2.224 0 1.38.152 2.129.4 1.976.252-.156.4.796.4 2.576 0 1.616.171 2.824.4 2.824.22 0 .4.81.4 1.8s.18 1.8.4 1.8c.226 0 .4 1.133.4 2.6v2.6h2.303c1.266 0 2.884.167 3.596.371.999.286 1.367.24 1.616-.206.404-.721.122-3.365-.359-3.365-.196 0-.356-.54-.356-1.2 0-.66-.18-1.2-.4-1.2-.22 0-.4-.72-.4-1.6 0-.88-.18-1.6-.4-1.6-.22 0-.4-.619-.4-1.376 0-.757-.18-1.488-.4-1.624-.22-.136-.4-.697-.4-1.247 0-.55-.162-.9-.36-.778-.198.122-.452-.542-.565-1.476-.329-2.725-1.152-5.899-1.528-5.899-.191 0-.347-.514-.347-1.142 0-.675-.425-1.6-1.042-2.265-.83-.896-.997-1.395-.825-2.459.119-.734.048-1.334-.158-1.334-.206 0-.375-.54-.375-1.2 0-.66-.18-1.2-.4-1.2-.22 0-.4-.54-.4-1.2 0-.66-.18-1.2-.4-1.2-.22 0-.4-.439-.4-.976 0-.537-.18-1.088-.4-1.224-.22-.136-.4-.687-.4-1.224 0-.537-.18-.976-.4-.976-.22 0-.4-.439-.4-.976 0-.537-.18-1.088-.4-1.224-.22-.136-.4-.523-.4-.859 0-1.297-2.87-2.738-3.733-1.874m8.828 44.371c-.162.163-.295 3.045-.295 6.405 0 3.642-.162 6.21-.4 6.357-.22.136-.4.967-.4 1.847 0 .965-.159 1.502-.4 1.353-.247-.152-.4.529-.4 1.776 0 1.113-.18 2.024-.4 2.024-.22 0-.4.54-.4 1.2 0 .66-.18 1.2-.4 1.2-.22 0-.4.36-.4.8 0 .44-.18.8-.4.8-.22 0-.4.54-.4 1.2 0 .66-.18 1.2-.4 1.2-.22 0-.4.242-.4.538 0 .296-.36.864-.8 1.262-.44.398-.8.966-.8 1.262 0 .296-.135.542-.3.547-.165.005-.93.89-1.7 1.967-.77 1.076-2.075 2.375-2.9 2.885-.825.51-1.5 1.037-1.5 1.171 0 .133-.81.659-1.8 1.168-.99.509-1.8 1.077-1.8 1.263 0 .185-.799.337-1.776.337s-1.888.18-2.024.4c-.136.22-1.137.4-2.224.4-1.087 0-1.976-.18-1.976-.4 0-.22-.72-.4-1.6-.4-.88 0-1.6-.18-1.6-.4 0-.22-.36-.4-.8-.4-.44 0-.8-.18-.8-.4 0-.22-.36-.4-.8-.4-.44 0-.8-.136-.8-.302 0-.167-.529-.537-1.175-.823-.646-.286-1.866-1.185-2.71-1.997-.845-.813-2.026-1.733-2.626-2.046-.599-.312-1.089-.727-1.089-.922 0-.195-1.08-1.458-2.4-2.807-1.32-1.349-2.4-2.649-2.4-2.89 0-.24-.36-.696-.8-1.013-.44-.317-.8-.897-.8-1.288 0-.498-.309-.712-1.028-.712h-1.029l.16 3.5c.088 1.925.266 3.882.396 4.348.36 1.298 2.358 5.135 2.752 5.285.192.074.349.344.349.6.001.257.406.947.9 1.533 2.01 2.383 2.3 2.75 2.3 2.916 0 .095.734.858 1.631 1.695a710.88 710.88 0 0 1 2.582 2.423c.523.495 1.189.9 1.481.9.291 0 .789.36 1.106.8.317.44.897.8 1.288.8.392 0 .712.146.712.325 0 .179.63.573 1.4.875.77.302 1.4.696 1.4.875 0 .179.551.325 1.224.325.713 0 1.12.167.976.4-.136.22.087.4.496.4.409 0 .915.149 1.124.33.209.182 1.19.56 2.18.839.99.28 2.113.671 2.495.87.382.199 1.147.361 1.7.361.553 0 1.005.18 1.005.4 0 .22.709.4 1.576.4.867 0 1.688.18 1.824.4.136.22.957.4 1.824.4.867 0 1.576.18 1.576.4 0 .254 3 .4 8.2.4 4.51 0 8.2-.142 8.2-.315 0-.173.585-.359 1.3-.413.715-.053 1.36-.272 1.433-.485.074-.213.569-.387 1.1-.387.532 0 .967-.18.967-.4 0-.22.241-.4.536-.4.589 0 4.259-3.315 4.273-3.86.005-.187.361-.79.791-1.34.43-.55.786-1.405.791-1.9.005-.495.189-.9.409-.9.505 0 .546-10.263.042-10.574-.197-.121-.46-.897-.584-1.723-.541-3.581-.767-4.503-1.102-4.503-.196 0-.356-.72-.356-1.6 0-.88-.18-1.6-.4-1.6-.22 0-.4-.619-.4-1.376 0-.757-.18-1.488-.4-1.624-.22-.136-.4-.766-.4-1.4 0-.634-.18-1.264-.4-1.4-.22-.136-.4-.957-.4-1.824 0-.867-.18-1.576-.4-1.576-.22 0-.4-.72-.4-1.6 0-.88-.18-1.6-.4-1.6-.22 0-.4-.54-.4-1.2 0-.66-.18-1.2-.4-1.2-.22 0-.4-.72-.4-1.6 0-.88-.18-1.6-.4-1.6-.22 0-.4-.72-.4-1.6 0-.88-.18-1.6-.4-1.6-.22 0-.4-.54-.4-1.2 0-.66-.045-1.211-.1-1.225-.055-.014-1.54-.187-3.3-.384-1.76-.197-3.652-.468-4.205-.603-.553-.135-1.138-.112-1.3.05M38.5 365.798c-.275.313-.5.846-.5 1.185 0 .339-.18.617-.4.617-.22 0-.4.197-.4.438s-.371.96-.825 1.597c-.453.636-.85 1.507-.883 1.934-.032.426-.201.687-.375.58-.174-.108-.317.084-.317.427 0 .343-.18.624-.4.624-.22 0-.4.357-.4.792 0 .869-.583 1.07-3.825 1.32-2.574.199-6.342 2.015-8.244 3.975-1.041 1.072-1.81 1.513-2.64 1.513-.757 0-1.617.425-2.428 1.2-.691.66-1.527 1.2-1.859 1.2-.332 0-.604.18-.604.4 0 .22-.36.4-.8.4-.44 0-.8.18-.8.4 0 .22-.45.4-1 .4s-1 .18-1 .4c0 .22-.54.4-1.2.4-.66 0-1.2.18-1.2.4 0 .22-.9.4-2 .4-1.956 0-2-.027-2-1.2 0-1.171.047-1.2 1.976-1.2 1.087 0 2.088-.18 2.224-.4.136-.22.597-.4 1.024-.4.427 0 .776-.18.776-.4 0-.22.225-.4.5-.4.275-.001.995-.427 1.6-.947 1.379-1.186 1.692-5.451.4-5.455-.385-.002-1.216-.272-1.846-.6-1.97-1.028-4.064-.552-6.159 1.4-.492.458-.895.723-.895.589s-.27.026-.6.356c-.33.33-.6.72-.6.868 0 .147-.523.756-1.162 1.353-1.943 1.815-2.263 8.836-.403 8.836.421 0 .765.18.765.4 0 .231 1.267.4 3 .4s3-.169 3-.4c0-.22.619-.4 1.376-.4.757 0 1.488-.18 1.624-.4.136-.22.597-.4 1.024-.4.427 0 .776-.18.776-.4 0-.22.36-.4.8-.4.44 0 .8-.18.8-.4 0-.22.36-.4.8-.4.44 0 .8-.18.8-.4 0-.22.36-.4.8-.4.633 0 .803.271.813 1.3.019 2 .779 2.7 2.931 2.7 1.021 0 1.856-.18 1.856-.4 0-.22.45-.4 1-.4s1-.18 1-.4c0-.22.236-.4.525-.4.288 0 .911-.36 1.383-.8.472-.44 1.064-.8 1.315-.8.251 0 .96-.54 1.577-1.2 1.512-1.619 1.6-1.556 1.6 1.136 0 2.115.096 2.379 1.019 2.8 1.249.569 3.781.612 3.781.064 0-.22.343-.4.762-.4.907 0 4.038-1.608 4.038-2.074 0-.179.198-.326.44-.326.241 0 .934-.53 1.539-1.177l1.099-1.177-.191 1.988c-.236 2.457.565 3.566 2.575 3.566.736 0 1.338-.18 1.338-.4 0-.22.234-.4.52-.4.736 0 2.673-.941 2.677-1.3.002-.165.363-.3.803-.3.44 0 .8-.168.8-.373s.366-.489.813-.631c.447-.142 1.249-.694 1.782-1.227 1.177-1.177 1.405-1.205 1.405-.169 0 .44-.18.8-.4.8-.895 0-.124 2.854 1 3.702.525.395 3.8.244 3.8-.177 0-.179.35-.325.777-.325.807 0 3.723-1.538 3.956-2.087.074-.172.439-.313.812-.313.373 0 .938-.36 1.255-.8.317-.44.857-.8 1.2-.8.343 0 .883-.36 1.2-.8.923-1.28 1.2-.95 1.2 1.429 0 2.293.566 3.371 1.771 3.371.346 0 .629.18.629.4 0 .226 1.133.4 2.6.4 1.43 0 2.6-.143 2.6-.318 0-.175.675-.363 1.5-.418.825-.054 1.56-.271 1.633-.482.074-.21.569-.382 1.1-.382.532 0 .967-.18.967-.4 0-.22.45-.4 1-.4s1-.18 1-.4c0-.22.236-.4.525-.4.288 0 .911-.36 1.383-.8.472-.44.956-.8 1.075-.8.387 0 .229 1.545-.183 1.8a.932.932 0 0 0-.394.724c.004.286.161.237.394-.124.312-.482.389-.418.394.329.003.51.263 1.185.577 1.5.645.645 3.829.787 3.829.171 0-.22.36-.4.8-.4.44 0 .8-.15.8-.332 0-.183.495-.588 1.1-.9.605-.313 1.571-1.057 2.147-1.654 1.185-1.228 1.553-1.093 1.553.571 0 1.813 1.581 3.115 3.782 3.115 1 0 1.818-.18 1.818-.4 0-.22.41-.4.912-.4.501 0 1.164-.35 1.473-.779.308-.428.696-.694.862-.592.166.102.755-.267 1.309-.821.554-.555 1.286-1.008 1.626-1.008.34 0 .618-.18.618-.4 0-.22.18-.4.4-.4.22 0 .4.789.4 1.754 0 2.084 1.085 3.046 3.433 3.046 1.369 0 6.526-1.499 6.967-2.025.11-.132.785-.494 1.5-.805 1.708-.743 1.928-2.77.3-2.77-.55 0-1 .18-1 .4 0 .22-.36.4-.8.4-.44 0-.8.18-.8.4 0 .22-.529.4-1.176.4-.647 0-1.288.18-1.424.4-.619 1.002-2.2.428-2.2-.8 0-.66.18-1.2.4-1.2.22 0 .4-.349.4-.776 0-.427.18-.888.4-1.024.22-.136.4-.609.4-1.052 0-1.204.973-1.948 2.548-1.948.773 0 1.516-.18 1.652-.4.136-.22 1.677-.4 3.424-.4 1.851 0 3.176-.167 3.176-.4 0-.22.36-.4.8-.4.533 0 .8-.267.8-.8 0-.754-.267-.8-4.6-.8-2.53 0-4.6-.085-4.6-.188s.36-.829.8-1.612c.906-1.613 1.027-3.013.32-3.72-.581-.581-1.92-.637-1.92-.08 0 .22-.36.4-.8.4-.5 0-.8.267-.8.712 0 .391-.36.971-.8 1.288-.44.317-.8.897-.8 1.288 0 .392-.18.712-.4.712-.22 0-.4.193-.4.429 0 .963-1.21 1.571-3.129 1.571-1.964 0-2.352.27-2.692 1.872-.129.607.82.972 1.721.662.385-.132-.065.339-1 1.047-.935.709-1.7 1.453-1.7 1.654 0 .201-.188.365-.418.365-.23 0-.838.405-1.35.9-1.66 1.604-2.63 2.3-3.203 2.3-.309 0-.633.212-.72.472-.087.263-.456.357-.833.213-.763-.293-1.023-5.085-.276-5.085.22 0 .4-.45.4-1s.135-1.001.3-1.003c.392-.004 1.3-1.97 1.3-2.813 0-2.196-8.085-1.692-10.007.624-.27.326-.694.592-.942.593-.248 0-1.165.759-2.037 1.686-1.255 1.333-1.825 1.661-2.725 1.567-.762-.08-1.377.156-1.861.713-.397.458-1.016.833-1.375.833s-.653.18-.653.4c0 .22-.36.4-.8.4-.44 0-.801.135-.803.3-.004.359-1.941 1.3-2.677 1.3-.286 0-.52.18-.52.4 0 .22-.54.4-1.2.4-.66 0-1.2.18-1.2.4 0 .702-3.882.485-4.157-.233-.781-2.035 2.339-7.367 4.31-7.367.319 0 .656-.225.749-.5.131-.391.313-.381.829.045.363.3.562.705.441.9-.121.195.421.355 1.204.355.783 0 1.424-.18 1.424-.4 0-.22.36-.4.8-.4 1.127 0 1.149-2.585.026-3.186-1.74-.931-6.479-.085-8.807 1.573-.629.447-1.267.813-1.42.813-.153 0-.782.54-1.399 1.2-.779.834-1.499 1.2-2.36 1.2-.682 0-1.24.18-1.24.4 0 .22-.188.4-.417.4-.229 0-.803.36-1.275.8-.472.44-1.095.8-1.383.8-.289 0-.525.18-.525.4 0 .22-.281.4-.624.4-.343 0-.512.18-.376.4.136.22-.123.4-.576.4-.453 0-.824.18-.824.4 0 .22-.36.4-.8.4-.44 0-.8.18-.8.4 0 .22-.435.4-.967.4-.531 0-1.057.225-1.168.5-.111.275-.216-.085-.233-.8-.018-.715.148-1.3.368-1.3s.4-.54.4-1.2c0-.66.18-1.2.4-1.2.22 0 .4-.278.4-.617 0-.339.36-1.003.8-1.475.44-.472.8-1.095.8-1.383 0-.289.18-.525.4-.525.669 0 .46-2.291-.233-2.557-1.524-.585-2.359-.113-5.568 3.147-1.835 1.864-3.574 3.439-3.864 3.5-.29.06-1.006.605-1.592 1.21-.585.605-1.312 1.1-1.615 1.1-.303 0-.811.36-1.128.8-.317.44-.717.8-.888.8-.458 0-.381-1.91.088-2.2.22-.136.4-.513.4-.837 0-.324.585-1.19 1.3-1.923 2.793-2.866 3.355-4.225 2.22-5.36-1.108-1.108-5.12.671-5.12 2.27 0 .849-1.75 2.45-2.679 2.45-.514 0-1.536.585-2.271 1.3-2.486 2.419-3.862 3.5-4.457 3.5-.326 0-.593.18-.593.4 0 .22-.36.4-.8.4-.44 0-.8.18-.8.4 0 .22-.18.4-.4.4-.229 0-.4-1.2-.4-2.8 0-1.6.171-2.8.4-2.8.22 0 .4-.36.4-.8 0-.44.18-.8.4-.8.22 0 .4-.45.4-1s.18-1 .4-1c.22 0 .4-.384.4-.853s.325-1.144.722-1.5c.397-.356.959-1.232 1.249-1.947.289-.715.651-1.3.803-1.3.5 0 1.626-2.8 1.626-4.042 0-2.036-1.905-3.117-3.1-1.76m98.967 2.869c-.625.625-.235 3.167.633 4.133 1.991 2.213 3.491.884 3.498-3.1.002-1.271-3.114-2.05-4.131-1.033m32.287 5.848c-.246.267-.831.75-1.3 1.073-.47.324-.854.819-.854 1.1 0 .282-.18.512-.4.512-.22 0-.4.45-.4 1s-.18 1-.4 1c-.22 0-.4.36-.4.8 0 .44-.18.8-.4.8-.22 0-.4.349-.4.776 0 .427-.18.888-.4 1.024-.22.136-.4.766-.4 1.4 0 .634-.18 1.264-.4 1.4-.22.136-.4.957-.4 1.824v1.576h1.813c1.357 0 1.879-.176 2.08-.7.452-1.18 6.128-6.5 6.935-6.5.231 0 .308-.18.172-.4-.136-.22.053-.4.419-.4.476 0 .586.2.383.7-.584 1.44-.711 5.672-.207 6.887.522 1.261 6.313 1.933 7.005.813.136-.22.597-.4 1.024-.4.427 0 .776-.168.776-.373s.376-.492.836-.638c1.762-.56 6.468-5.722 6.197-6.799-.236-.941-1.433-1.434-1.433-.59 0 .22-.261.4-.58.4-.319 0-.764.315-.988.7-.224.385-.413.55-.42.367-.007-.183-.718.402-1.581 1.3-.862.898-1.837 1.633-2.166 1.633-.329 0-.658.157-.732.349-.339.886-3.608 2.033-4.177 1.464-.638-.637-.756-2.613-.156-2.613.22 0 .4-.36.4-.8 0-.44.18-.8.4-.8.22 0 .4-.423.4-.941 0-.517.54-1.505 1.2-2.196.66-.691 1.2-1.437 1.2-1.659 0-.222.18-.404.4-.404.657 0 .452-1.894-.233-2.157-1.166-.448-3.264-.249-3.767.357-.274.33-.791.604-1.149.609-.358.005-1.101.361-1.651.791-.55.43-1.185.786-1.412.791-.226.005-.671.369-.988.809-.317.44-.831.8-1.141.8-.311 0-.902.389-1.315.864-.412.475-.883.721-1.047.545-.163-.175-.072-.399.203-.497.275-.098.5-.451.5-.785 0-.333.54-1.11 1.2-1.727 1.474-1.377 1.54-2.517.181-3.136-1.272-.579-1.858-.567-2.427.051m-34.341.959c-1.427.773-2.213 1.517-2.213 2.097 0 .236-.18.429-.4.429-.22 0-.4.36-.4.8 0 .44-.18.8-.4.8-.22 0-.4.45-.4 1s-.18 1-.4 1c-.22 0-.4.234-.4.52 0 .736-.941 2.673-1.3 2.677-.709.007-.244 2.666.647 3.703.99 1.151 4.671 1.642 5.253.7.136-.22.586-.4 1.001-.4.789 0 3.702-1.546 3.932-2.087.074-.172.389-.313.7-.313.312 0 .567-.18.567-.4 0-.22.32-.4.712-.4.391 0 .971-.36 1.288-.8.923-1.281 1.2-.949 1.2 1.437 0 1.901.12 2.269.8 2.447.44.115.8.368.8.563 0 .194 1.08.353 2.4.353 1.333 0 2.4-.178 2.4-.4 0-.22.439-.4.976-.4.537 0 1.088-.18 1.224-.4.136-.22.597-.4 1.024-.4.427 0 .776-.136.776-.302 0-.167.541-.542 1.202-.835.662-.293 1.121-.664 1.022-.825-.1-.161.169-.545.597-.853.429-.309.779-.892.779-1.297 0-.404.18-.624.4-.488.22.136.4-.033.4-.376 0-.343.18-.624.4-.624 1.313 0 .383-4.448-1.268-6.067l-1.669-1.635-2.766.257c-2.624.244-3.897.841-3.897 1.83 0 1.087-2.771 3.215-4.187 3.215-.777 0-1.413.18-1.413.4 0 .22-.225.4-.5.4-.275.001-.98.406-1.566.9-.587.495-1.444 1.215-1.905 1.6-.461.385-1.106.7-1.434.7-.327 0-.595.18-.595.4 0 .22-.36.4-.8.4-.44 0-.8.18-.8.4 0 .22-.439.4-.976.4-.537 0-1.088.18-1.224.4-.136.22-.417.4-.624.4-.502 0-.483-1.487.024-1.8.22-.136.4-.563.4-.948 0-.386.36-1.088.8-1.56.44-.472.8-1.096.8-1.387 0-.291.36-.788.8-1.105.44-.317.8-.897.8-1.288 0-.392.18-.712.4-.712.445 0 .531-1.192.157-2.167-.308-.803-1.617-.785-3.144.041M8.559 379.868c-1.03.825-2.559 1.264-2.559.735 0-.466 1.791-2.203 2.272-2.203.29 0 .533-.225.54-.5.007-.275.214-.153.459.27.377.649.264.917-.712 1.698m91.841-1.122c0 .842-4.058 5.254-4.832 5.254-.276 0-.384.117-.241.261.214.214-1.444 1.339-1.973 1.339-.589 0 .053-1.472 1.046-2.4.66-.617 1.2-1.409 1.2-1.76 0-.352.225-.644.5-.649.275-.005 1.195-.635 2.044-1.4 1.748-1.574 2.256-1.719 2.256-.645m-69.62.354c-.011.385-.927 1.42-2.036 2.3-1.109.88-2.442 2.005-2.962 2.5-.52.495-1.134.9-1.364.9a.41.41 0 0 0-.418.4c0 .22-.444.4-.987.4-1.14 0-1.013-.786.368-2.29A990.52 990.52 0 0 0 26 380.431c1.965-2.17 4.827-2.966 4.78-1.331m125.449-.129c.642.643.792 2.413.171 2.029-.22-.136-.4.038-.4.387 0 2.143-6.283 6.136-6.945 4.413-.126-.33-.056-.6.158-.6.213 0 .387-.366.387-.814 0-2.029 5.512-6.531 6.629-5.415" fill="#dc3c34"/><path d="M113.402 25.478c.075.397.151.857.167 1.022.017.165.211.3.431.3.594 0 .484-1.032-.168-1.573-.458-.381-.541-.332-.43.251m11.989 23.713c.62.684 1.409.775 1.409.162 0-.11-.181-.088-.403.049-.221.137-.511-.033-.643-.377s-.428-.625-.659-.625c-.23 0-.097.356.296.791m1.067 2.109c.514 1.202 1.009 1.447 1.009.5 0-.33-.088-.513-.194-.406-.107.106-.44-.119-.74-.5-.472-.6-.482-.545-.075.406M141.5 65.256c.275.277.5 1.021.5 1.653 0 1.157.778 2.291 1.571 2.291.236 0 .069-.36-.371-.8-.44-.44-.8-1.321-.8-1.957 0-.734-.256-1.255-.7-1.424-.561-.214-.601-.167-.2.237m-5.762 3.553c.916.731 1.094 1.129.913 2.035-.124.619-.053 1.231.158 1.361.212.131.276-.04.144-.384-.131-.342-.051-.621.178-.621 1.242 0-.069-2.574-1.531-3.005-.983-.289-.981-.279.138.614m21.224 23.653c-.177.286-.11.353.176.176.303-.187.462.067.462.738 0 .619.225 1.024.569 1.024.486 0 .482-.176-.029-1.2-.667-1.337-.769-1.401-1.178-.738m1.661 3.628c-.187.43-.071.919.31 1.3.732.732 1.335.819.759.11-.223-.275-.487-.86-.587-1.3-.163-.721-.211-.732-.482-.11M149.6 98.4c.44.44.8 1.171.8 1.624 0 .453.18.712.4.576.638-.394.464-1.618-.331-2.338-1.046-.946-1.829-.822-.869.138m10.57.677c.059.398.269.678.468.623.522-.144.445-1.006-.106-1.189-.264-.088-.422.159-.362.566m1.43 2.99c0 .476.051.791.113.7.062-.092.354-.482.649-.867.459-.599.442-.7-.113-.7-.399 0-.649.334-.649.867m-7.281 8.407c.516.503 11.941.877 12.235.4.189-.305-1.639-.471-6.123-.555-3.516-.065-6.267.004-6.112.155m4.181 3.023a85.45 85.45 0 0 0 6.2 0c1.705-.075.31-.136-3.1-.136s-4.805.061-3.1.136m12.142 8.268c.117.306.561.647.986.758.895.234.983.015.262-.652-.742-.687-1.495-.751-1.248-.106m4.106 9.235c-.484.767.111 3 .797 2.994.44-.004.501-.104.188-.304-.258-.163-.528-.925-.6-1.693-.073-.769-.247-1.217-.385-.997m-12.888 2.506c.252.162.543.744.645 1.294.158.847.194.801.241-.3.041-.994-.111-1.299-.646-1.294-.45.004-.536.111-.24.3m2.914 12.663c.509.613 3.275.897 11.426 1.175l4.8.163-3.6-.365a201.06 201.06 0 0 0-7.4-.58c-2.09-.118-3.971-.383-4.18-.589-.659-.647-1.599-.471-1.046.196m1.426 2.472c.44.11 1.16.365 1.6.567.76.348 3.179.569 10.4.951 4.463.236.913-.442-5-.955-2.31-.201-5.01-.454-6-.564-.99-.109-1.44-.109-1 .001m17.134 9.586c-.132.345-.075.792.126.993.222.222.399-.025.449-.627.092-1.119-.212-1.312-.575-.366m.521 3.573c-.14.365 0 .6.358.6.323 0 .587-.27.587-.6 0-.33-.161-.6-.357-.6-.197 0-.461.27-.588.6m1.188 8.033c-.672 1.751.337 4.294 1.17 2.947.131-.212-.059-.5-.422-.639-.508-.195-.601-.561-.407-1.597.264-1.405.076-1.797-.341-.711m-17.123 4.654c.161 4.913.471 5.033.444.172-.011-2.122-.143-3.859-.292-3.859-.15-.001-.218 1.658-.152 3.687m20.172 9.08c.55 2.014.767 2.076.655.188-.055-.932-.298-1.622-.571-1.622-.351 0-.373.374-.084 1.434m-20.281.183c.434.303 1.509.654 2.389.78.88.126 2.59.426 3.8.665 2.087.414 3.337.647 8.7 1.624 1.265.23 3.02.474 3.9.543.88.068 1.015.048.3-.043-.715-.092-1.3-.336-1.3-.543 0-.207-.889-.376-1.976-.376s-2.088-.18-2.224-.4c-.136-.22-1.036-.4-2-.4s-1.864-.18-2-.4c-.136-.22-1.126-.4-2.2-.4-1.074 0-2.064-.18-2.2-.4-.136-.22-1.036-.4-2-.4s-1.864-.18-2-.4c-.136-.22-.637-.4-1.113-.4-.85 0-.851.01-.076.55m-.211 2.521c.55.089 1.36.325 1.8.523.44.198 1.52.452 2.4.563.88.111 2.59.397 3.8.636 5.606 1.103 9.26 1.756 12.4 2.215 1.314.191 1.339.176.4-.261-.998-.464-3.526-.936-7.507-1.401-1.159-.135-2.205-.404-2.324-.596-.119-.193-1.095-.35-2.169-.35s-2.064-.18-2.2-.4c-.136-.22-1.036-.4-2-.4s-1.864-.18-2-.4c-.136-.22-1.002-.375-1.924-.346-1.011.033-1.28.119-.676.217M75.855 190.6c.127.33.402.6.611.6.21 0 .27.18.134.4-.136.22.065.4.446.4.592 0 .556-.146-.246-1-1.086-1.156-1.264-1.231-.945-.4m113.229 1.8c-.115.439-.046.9.154 1.023.199.123.362-.236.362-.799 0-1.226-.228-1.325-.516-.224m.034 10.2c-.065 3.851.017 7.001.182 7 .165 0 .3-3.15.3-7s-.082-7-.182-7c-.1 0-.235 3.15-.3 7m-24.233-5.387c-.267.427-.484 1.004-.483 1.282.002.278.275-.017.608-.655.693-1.329.601-1.79-.125-.627m-.804 2.805c-.309.495-.335.782-.072.782.229 0 .523-.278.653-.617.36-.938-.029-1.049-.581-.165m-80.511.924c1.048 1.144 1.23 1.248 1.23.704 0-.195-.495-.671-1.1-1.058l-1.1-.703.97 1.057m4.094 4.989c.28.368.538.722.573.786.035.065.164-.143.286-.46.137-.357-.083-.658-.574-.786-.688-.18-.726-.118-.285.46m22.975 5.607c-.139.223-.057.527.181.674.615.381 1.012-.14.498-.654-.287-.287-.511-.294-.679-.02m2.012 1.451c.116.302.458.644.76.76.346.133.471.008.338-.338-.116-.302-.458-.644-.76-.76-.346-.133-.471-.008-.338.338m-11.954 6.911c-.083.165.266.734.776 1.263.743.772.927.832.927.3 0-.364-.18-.663-.4-.663-.22 0-.4-.27-.4-.6 0-.619-.637-.831-.903-.3m34.103 1.08c0 .31 1.558.493 1.98.233.26-.161-.075-.305-.756-.325-.673-.019-1.224.022-1.224.092m52.105 1.487c-.03.403.017.733.106.733.088 0 .337-.33.553-.733.283-.529.254-.734-.106-.734-.274 0-.523.33-.553.734m-83.172.571c0 .309.24.562.534.562.293 0 .533-.161.533-.357 0-.197-.24-.45-.533-.562-.294-.113-.534.048-.534.357m82.095 3.407c.151.244.096.559-.123.7-.622.399-1.031 2.055-.508 2.055.247 0 .355-.153.239-.341-.116-.188.048-.683.364-1.1.682-.902.768-1.759.176-1.759-.233 0-.3.2-.148.445m-75.182 2.93a.612.612 0 0 0 .785.358c.675-.259.356-.933-.442-.933-.326 0-.471.243-.343.575m73.299.583c.383.242.41.41.09.564-.31.148-.301.188.03.123.801-.157.859-1.045.068-1.039-.566.005-.609.085-.188.352m-12.506 12.38c-.139.223-.057.527.181.674.615.381 1.012-.14.498-.654-.287-.287-.511-.294-.679-.02M237.4 375.2c-.136.22.134.4.6.4.466 0 .736-.18.6-.4-.136-.22-.406-.4-.6-.4-.194 0-.464.18-.6.4m117.4-.049c0 .247.168.449.373.449.206 0 .449.495.54 1.1l.167 1.1.06-1.051c.033-.578-.21-1.275-.54-1.549-.415-.344-.6-.359-.6-.049m-87.174 1.418c-.387.466-.324.529.351.353.453-.118.823-.374.823-.569 0-.539-.646-.421-1.174.216m65.274-.304c-.685.276-.631.802.082.802.321 0 .499-.137.396-.303-.104-.167.129-.386.517-.487.467-.122.503-.189.105-.199a3.302 3.302 0 0 0-1.1.187m-19.7.935c-.507.44-.743.8-.523.8.219 0 .725-.36 1.123-.8.398-.44.634-.8.523-.8-.11 0-.616.36-1.123.8m-80.4.715c0 .173.364.342.809.376.444.033.704-.109.576-.315-.281-.455-1.385-.503-1.385-.061m31.817.057c-.388.628.35.78.899.186.423-.458.41-.558-.077-.558-.325 0-.695.168-.822.372m41.173.458c-.144.457-.157.937-.027 1.067.131.13.237-.074.237-.454s.178-.58.395-.446c.227.14.294-.02.158-.376-.315-.82-.447-.784-.763.209m25.823 1.146c-.296.554-.283.857.048 1.062.287.177.354.11.177-.176-.157-.254-.084-.462.162-.462s.345-.165.221-.366c-.124-.201 0-.457.277-.568.376-.152.38-.211.016-.234-.267-.018-.673.317-.901.744m-45.137.248c-.288.326-.721.472-.962.323-.263-.163-.323-.086-.152.192.304.491 1.56.034 2.039-.741.381-.616-.337-.44-.925.226m-59.646.74c-.321.386-.336.647-.049.824.23.143.433.204.45.136.388-1.569.293-1.796-.401-.96m30.77-.256c0 .693.996.83 1.793.248.669-.489.679-.556.083-.556-.372 0-.676.202-.676.449 0 .31-.185.295-.6-.049-.346-.287-.6-.326-.6-.092m36.8.068c0 .308-.26.41-.657.258-.559-.215-.578-.158-.13.382.48.578.559.576.894-.021.201-.36.26-.762.13-.892-.131-.13-.237-.007-.237.273m-60.58.56c-.709.518-.708.544.012.821.409.157.616.157.459.001-.156-.156-.084-.526.161-.821.569-.686.305-.686-.632-.001m31.247-.269c-.147.146-.264.461-.261.7.004.293.101.286.3-.021.162-.249.654-.543 1.094-.653.774-.194.773-.202-.033-.247-.459-.025-.954.074-1.1.221m8.533.354c0 .414-.459 1.148-1.02 1.63-.615.528-.853.98-.6 1.137.231.142.42.069.42-.164s.256-.424.568-.424c.577 0 1.306-2.259.87-2.695-.131-.131-.238.101-.238.516m-53.1.402c-.589.64-.638.977-.143.977.341 0 .98-1.204.752-1.417-.06-.056-.334.142-.609.44m55.684-.196c-.378.611-.079.775.929.512.483-.127.779-.389.659-.584-.302-.49-1.269-.446-1.588.072m4.043.754c-.572.208-.641.363-.266.595.28.173.706.117.947-.124.59-.59.266-.815-.681-.471m65.854.837c-.309.495-.335.782-.072.782.229 0 .523-.278.653-.617.36-.938-.029-1.049-.581-.165m-136.117.013c-.31.196-.384.362-.164.369.22.007.13.187-.2.4-.367.237-.414.39-.12.394.264.003.664-.309.888-.694.226-.388.413-.477.42-.2.013.561.812.702.812.143 0-.555-1.01-.809-1.636-.412m16.134.923c-.034.46.064.64.22.401.155-.239.547-.52.872-.625.435-.14.378-.245-.22-.401-.61-.16-.824-.007-.872.625m-19.548.033c-.124.323-.133.818-.019 1.1.113.282.22.097.237-.411.021-.591.198-.821.494-.638.286.177.353.11.176-.176-.38-.616-.617-.582-.888.125m10.921-.027c-.149.387-.514.538-.956.396-.599-.194-.618-.162-.115.2.496.357.502.433.033.438-.311.003-.473.099-.359.213.43.431 2.266-.856 1.951-1.367-.241-.39-.369-.362-.554.12m92.599-.193c.013.128-.011.323-.056.433-.044.11-.147.74-.229 1.4l-.15 1.2.416-1.1c.229-.605.551-1.1.716-1.1.165 0 .3-.24.3-.533a.524.524 0 0 0-.511-.534c-.282 0-.5.105-.486.234m-77.616 1.533c.048.952.078.978.229.194.101-.523.357-.793.607-.638.259.159.318.081.148-.194-.512-.829-1.039-.487-.984.638m87.946-.524a.626.626 0 0 1-.624.624c-.343 0-.512.18-.376.4.136.22.057.4-.176.4a.423.423 0 0 0-.424.419c0 .499 1.879-.807 2.166-1.506.109-.268.027-.594-.183-.724-.211-.13-.383.044-.383.387m53.868.13c.126.499.387 1.004.58 1.124.548.338.414-.394-.228-1.254-.56-.749-.572-.744-.352.13m-131.068 1.07c0 .783.07 1.424.155 1.424.328 0 .494-2.446.178-2.641-.183-.114-.333.434-.333 1.217m-28.768-.443c-.037.839.839.71 1.073-.158.129-.475.09-.48-.226-.03-.323.461-.416.461-.599 0-.146-.367-.227-.305-.248.188m3.417.156c.065.27-.19.683-.566.92-.558.351-.5.381.317.165 1.263-.333 1.995-.974 1.113-.974-.355 0-.722-.135-.814-.3-.092-.165-.115-.08-.05.189m35.763.895c-.324.205-.471.491-.326.635.144.144.674-.026 1.177-.378.986-.691.207-.926-.851-.257m94.655-.117c-.147.146-.261.551-.254.9.011.548.083.54.539-.061.29-.381.673-.561.852-.4.178.162.195.069.037-.206-.318-.553-.766-.642-1.174-.233m-43.271.54c-.138.223-.406.31-.596.193-.19-.117-.435-.067-.545.11-.11.178.148.35.573.382.424.032.772-.121.772-.34 0-.22.208-.271.462-.114.286.177.353.11.176-.176-.351-.568-.519-.579-.842-.055m69.077.08c-.56.56-.618 1.113-.116 1.113.367 0 .97-1.206.726-1.451-.075-.074-.349.077-.61.338M234.7 388.385c-.385.375-.7.815-.7.977 0 .162.285.011.632-.337.348-.348.798-.53 1-.405.203.125.368.047.368-.173 0-.727-.589-.755-1.3-.062m-27.468.288c-.018.261-.527.549-1.132.64-.67.102-.347.191.824.227 1.214.038 1.831-.09 1.672-.347-.138-.223-.403-.312-.589-.197-.186.115-.43-.017-.541-.294-.143-.354-.212-.363-.234-.029m125.392.314c1.138.861 3.378.803 3.37-.087-.004-.397-.134-.526-.3-.299-.416.568-2.366.73-2.679.223-.144-.233-.466-.424-.715-.424-.249 0-.104.264.324.587m-71.724.489c.385.1 1.015.1 1.4 0 .385-.101.07-.183-.7-.183s-1.085.082-.7.183m-4.486 5.698c-.531.993-.521 1.226.053 1.226.256 0 .353-.114.214-.253-.139-.139-.073-.589.147-1 .22-.411.31-.747.2-.747-.11 0-.386.348-.614.774" fill="#0c6cb4"/><path d="M111.445 20.128c-.331 1.233-.299 1.953.075 1.721.176-.109.557.603.846 1.581.289.979.712 1.895.941 2.036.266.165.294.055.078-.304-.288-.479-.238-.481.338-.013.765.621.908 1.651.228 1.651-.312 0-.298.182.045.596.272.327.632.51.801.406.251-.155.587.859.827 2.5.024.164.231.523.459.798s.287.5.13.5c-.156 0 .182.554.751 1.231.57.677 1.036 1.487 1.036 1.8 0 .313.199.569.443.569.243 0 .35.242.236.538-.113.296.137.786.557 1.088.42.303.764.861.764 1.239 0 1.138 1.647 3.602 2.253 3.37.301-.115.547-.051.547.144 0 .195-.204.422-.454.506-.297.099-.228.376.2.804.36.36.654.847.654 1.082 0 .236.191.429.424.429.233 0 .307.188.165.418-.142.229-.04.679.226 1 .265.32.326.588.134.595-.192.007-.016.265.391.573.407.308.621.753.476.987-.145.235-.053.427.203.427.257 0 .363.269.237.597-.126.33.143.943.6 1.37.522.485.711.968.51 1.302-.239.397-.143.388.38-.037.604-.49.682-.49.577 0-.068.313-.303.703-.523.868-.251.188-.176.444.2.685.33.212.608.617.618.9.01.283.235.47.5.415.265-.055.461.035.435.2-.026.165-.012.39.033.5.044.11.166.74.271 1.4.106.66.336 1.251.511 1.314.84.302 1.869 1.363 1.075 1.109-.793-.253-.56.204.88 1.727.288.304.445.756.35 1.004-.201.525.726 1.514 1.084 1.155.134-.133.243-.032.243.224 0 .257-.225.473-.5.48-.275.007-.032.425.539.928.621.547 1.024 1.308 1 1.888-.03.743.313 1.143 1.461 1.704.825.403 1.514.943 1.531 1.2.016.257.091.782.164 1.167.074.385-.011.7-.188.7s-.429.279-.56.621c-.136.356-.069.516.158.376.217-.134.395-.054.395.179 0 .233.315.437.7.452.599.024.584.078-.1.372-.44.189-.575.356-.3.372.275.015.5.309.5.652s.18.512.4.376c.22-.136.4.123.4.576 0 .453.18.824.4.824.22 0 .379.135.353.3-.113.716.071 1.333.347 1.162.165-.102.327.271.361.829.033.557.287 1.153.564 1.324.277.172.532.643.568 1.048.035.405.587 1.817 1.225 3.137.638 1.32 1.188 2.535 1.221 2.7.034.165.106.39.161.5.055.11.123.365.15.566.028.202.483.742 1.011 1.2.529.459.743.834.477.834-.267 0-.372.183-.234.407a.484.484 0 0 0 .664.151c.234-.145.205.132-.068.642-.318.593-.331.805-.04.625.248-.154.44 0 .44.351 0 .343.225.627.5.63.333.004.3.136-.1.394s-.433.39-.1.394c.275.003.5.366.5.806 0 .44.22.755.488.7.293-.06.492.366.5 1.067.009.866.311 1.332 1.177 1.812 1.648.915 2.1 1.76 1.548 2.895-.58 1.193-.519 2.414.108 2.173.325-.124.416.091.271.643-.137.526.044 1.02.496 1.351.398.291.61.788.48 1.127-.128.333-.061.713.149.843.211.13.383.564.383.964s.405 1.028.9 1.395.675.558.4.425c-.283-.137-.5.013-.5.346 0 .493 1.087.595 6.7.627 4.324.025 6.494-.095 6.119-.338-.319-.208-.726-.288-.903-.178-.177.109-.098-.293.176-.895.396-.868.397-1.127.003-1.259-.272-.09-.495-.51-.495-.931 0-.422-.135-.768-.3-.77-.365-.004-1.3-1.946-1.3-2.7 0-.299-.18-.433-.4-.297-.222.137-.406-.165-.413-.676-.012-.914-.02-.915-.648-.124-.608.765-.626.742-.394-.52.151-.822.094-1.228-.151-1.076-.217.134-.394-.037-.394-.38s-.201-.579-.447-.524c-.246.055-.502-.229-.569-.631-.083-.494.062-.66.447-.513.313.121.569.045.569-.169 0-.213-.373-.387-.829-.387-1.303 0-1.999-.959-1.717-2.368.194-.972.109-1.232-.404-1.232-.431 0-.65-.345-.65-1.024 0-.702-.157-.935-.5-.741-.4.226-.4.175 0-.256.682-.735.628-1.179-.143-1.179-.39 0-.557-.223-.425-.567.12-.312-.062-.674-.403-.805-.371-.142-.541-.539-.423-.991.136-.521-.103-.889-.777-1.197-.536-.244-.87-.612-.743-.818.127-.206-.015-.605-.317-.886-.301-.282-.464-.833-.362-1.224.216-.827-.315-.932-1.076-.212-.436.413-.448.343-.066-.4.376-.731.355-.9-.113-.9-.383 0-.506-.273-.364-.813.119-.458-.072-1.128-.439-1.533-.358-.395-.515-.868-.35-1.05.166-.182-.026-.214-.425-.07-.587.211-.678.108-.473-.537.145-.456.07-.797-.174-.797-.235 0-.427-.372-.427-.827 0-.666-.175-.778-.9-.574-.584.165-.72.128-.388-.104.401-.279.335-.581-.3-1.389-.447-.568-.812-1.242-.812-1.498s-.272-.737-.604-1.069c-.332-.332-.484-.797-.338-1.033.157-.255.078-.313-.196-.144-.272.168-.462.034-.462-.326 0-.388-.227-.524-.62-.373-.499.192-.569.032-.357-.812.224-.894.133-1.051-.608-1.051-1.218 0-2.015-.928-2.015-2.348 0-.663-.172-1.311-.383-1.441-.21-.13-.271-.527-.135-.882.15-.39-.052-.864-.512-1.201-.419-.306-.763-.864-.765-1.242-.003-.377-.212-.647-.464-.6-.267.051-.376-.23-.261-.672.127-.486-.103-.946-.641-1.282-.461-.289-.839-.841-.839-1.228s-.259-.704-.576-.704c-.317 0-.705-.208-.862-.462-.177-.286-.11-.353.176-.176.265.163.462.048.462-.271 0-.306-.436-.789-.968-1.074-.556-.298-.878-.752-.757-1.068.116-.302.023-.549-.206-.549-.23 0-.642-.62-.916-1.379-.274-.758-.646-1.287-.826-1.176-.18.111-.327.012-.327-.221s-.281-.424-.624-.424c-.343 0-.51-.183-.372-.407a.477.477 0 0 1 .653-.158c.221.137.173-.118-.108-.567-.28-.449-.653-.727-.829-.619-.176.109-.32-.102-.32-.468 0-.394-.22-.582-.538-.46-.385.147-.485-.067-.353-.758.137-.718.008-.963-.509-.963-.468 0-.633-.232-.507-.712.102-.391-.057-.938-.354-1.216-.296-.277-.539-.384-.539-.239 0 .146-.259.05-.576-.213-.317-.263-.491-.702-.386-.975.105-.273-.444-1.295-1.22-2.271s-1.412-1.956-1.414-2.178c-.002-.222-.359-.625-.793-.896-.434-.271-.691-.746-.573-1.056.119-.31-.004-.699-.273-.865-.341-.212-.387-.134-.15.259.274.455.202.451-.382-.023-.408-.332-.534-.648-.291-.729.296-.099.278-.405-.056-.984-.881-1.526-1.623-2.265-2.025-2.016-.238.147-.29-.034-.13-.45.272-.708-.52-1.836-1.288-1.836-.493 0-1.108-1.155-1.066-2 .039-.756-1.01-2.027-1.448-1.756-.181.112-.329-.088-.329-.444s-.184-.533-.41-.394c-.225.139-.37.105-.321-.076.173-.639-.531-2.139-.898-1.912-.321.199-.554-.627-.423-1.504.023-.157-.227-.182-.557-.055-.428.164-.529.045-.353-.414.136-.355.048-.645-.195-.645-.244 0-.443-.251-.443-.557 0-.966-1.102-1.059-1.355-.115m43.755 93.901c0 .448.992 1.592 1.259 1.452.085-.045.016.09-.152.299-.38.47-.411 1.657-.034 1.28.357-.357 1.473 2.134 1.362 3.04-.047.385.142.7.42.7.362 0 .383.122.072.433-.555.555.535 2.9 1.166 2.509.284-.175.311-.074.08.296-.538.864-.639 2.05-.147 1.746.257-.159.377.03.301.476-.075.439.083.697.39.634.392-.08.417.083.1.674-.511.956-.544 1.758-.059 1.458.441-.273.935.9.605 1.434-.425.688.688 2.74 1.486 2.74.568 0 .751.292.751 1.2 0 .667-.213 1.2-.48 1.2-.363 0-.367.113-.019.461.32.32.339.691.062 1.207-.439.822.446 2.574 1.025 2.029.175-.163.085.085-.199.551-.445.73-.398 1.016.335 2.046.469.658.732 1.316.586 1.463-.418.417-.482 1.473-.075 1.221.201-.124.365.034.365.352 0 .831 1.277 1.171 5.8 1.547 8.835.734 10.692.795 10.415.347-.149-.24-.396-.359-.55-.264-.154.095-.214-.521-.133-1.369.093-.975-.088-1.879-.492-2.456-.352-.502-.64-.729-.64-.504 0 .225.135.581.3.792.165.21.045.165-.266-.1-.468-.4-.475-.591-.041-1.115.443-.534.376-.794-.434-1.684-.528-.579-.734-.923-.459-.765.331.191.5.01.5-.535 0-.453-.245-.824-.545-.824-.37 0-.488-.353-.368-1.1.137-.86.083-.969-.25-.5-.354.5-.434.45-.481-.3a47.589 47.589 0 0 0-.106-1.4c-.027-.275-.436-.555-.908-.622-.929-.133-1.577-2.337-.899-3.058.478-.509.456-1.82-.03-1.82-.214 0-.281-.279-.15-.619.134-.349-.062-.838-.449-1.121-.377-.276-.624-.852-.55-1.281.092-.529-.079-.763-.533-.729-.512.039-.597-.141-.365-.771.323-.873-.548-2.279-1.412-2.279-.258 0-.561-.24-.673-.533-.113-.294.048-.534.357-.534s.562.15.562.334c0 .183.182.333.403.333.475 0-.367-1.648-1.076-2.105-.26-.167-.389-.767-.286-1.332.117-.644.032-.932-.227-.771-.36.222-.606-.576-.461-1.492.026-.165-.17-.255-.435-.2-.265.055-.499-.08-.519-.3-.21-2.212-.169-2.2-7.226-2.2-4.407 0-6.573.141-6.573.429m9.453 35.258c.111.179.327.249.479.155.152-.094.259.713.238 1.794-.036 1.855.331 2.567.756 1.464.106-.275.173-.107.15.372-.024.491-.225.763-.459.624-.229-.137-.17.055.133.428.332.409.459 1.13.321 1.819-.129.649-.023 1.345.247 1.615.367.367.352.552-.067.81-.397.246-.414.378-.061.495.323.108.493 1.367.521 3.849.022 2.028.167 3.688.322 3.688s.395.295.533.657c.195.507.133.557-.273.22-.624-.517-.729 1.732-.125 2.685.259.409.214.474-.168.238-.346-.214-.427-.167-.238.138.157.254.545.462.862.462.671 0 .824 2.6.176 3-.22.136-.4 1.197-.4 2.357 0 1.16-.125 2.234-.277 2.387-.487.487-.562 1.927-.084 1.632.321-.198.321-.049.001.549-.776 1.45-.553 2.475.536 2.475.537 0 1.088.18 1.224.4.136.22 1.036.4 2 .4s1.864.18 2 .4c.136.22 1.126.4 2.2.4 1.074 0 2.064.18 2.2.4.136.22 1.036.4 2 .4s1.864.18 2 .4c.136.22 1.137.4 2.224.4 1.087 0 1.976.18 1.976.4 0 .22.719.4 1.598.4 1.759 0 1.864-.492.837-3.934-.333-1.115-.308-1.259.151-.878.433.36.528.308.447-.244-.057-.385-.267-.755-.468-.822-.201-.067-.351-.924-.333-1.905.019-1.102-.163-1.859-.478-1.979-.352-.136-.469-.887-.376-2.435.112-1.881.029-2.228-.522-2.175-1.381.135-1.656-.064-1.656-1.195 0-1.663.417-2.652.834-1.978.249.403.385.36.596-.189.18-.468-.021-.984-.587-1.512-.496-.462-.735-1.003-.563-1.278.485-.776.475-1.434-.019-1.244-.306.118-.441-.362-.402-1.427.036-.976-.121-1.605-.4-1.605-.282 0-.446-.688-.426-1.782.019-.981-.094-1.704-.249-1.608-.156.096-.3-.663-.32-1.686-.021-1.023-.21-1.967-.421-2.097-.211-.131-.442-.955-.513-1.832-.076-.926-.322-1.559-.589-1.509-.266.05-.376-.23-.262-.668.213-.813.639-.75-9.877-1.455-1.869-.125-3.605-.4-3.859-.61-.552-.458-3.379-.336-3.09.134m3.637 28.006c-.089.719-.164.227-.166-1.093-.002-1.32.071-1.908.162-1.307.091.601.093 1.681.004 2.4m-94.79 7.772c.275.111.5.377.5.592 0 .215-.18.279-.4.143-.602-.372-.481.707.186 1.658.322.461.457.99.3 1.176-.157.187.033.095.423-.204.618-.473.677-.458.457.113-.138.362-.058.657.179.657.236 0 .333.252.215.56-.118.307.006.695.275.861.339.21.389.131.162-.259-.179-.309.155-.124.743.412.796.725.94 1.059.564 1.307-.394.261-.37.441.113.827.339.27 1.029 1.167 1.532 1.992.504.825 1.002 1.5 1.107 1.5.105 0 .081-.178-.053-.395-.14-.227.02-.294.376-.158.698.268.845.953.205.953-.24 0-.197.236.1.558.284.307.638.484.788.394.149-.091.497.458.772 1.218.274.76.692 1.348.928 1.306.235-.042.385.143.333.41-.057.288.157.389.524.248.411-.158.694.048.842.614.122.469.392.852.599.852.208 0 .27.173.139.385-.131.212.113.737.543 1.167.43.43.676.886.548 1.015-.128.128.077.233.457.233s.589.163.466.363c-.123.199.164.261.639.137.554-.145.769-.073.599.201-.385.624.13 1.699.815 1.699.325 0 .519.214.432.476-.227.68 3.245 3.998 3.821 3.653.265-.159.231.013-.078.394-.473.583-.459.677.1.677.357 0 .649.191.649.424 0 .233.18.312.4.176.22-.136.403.078.406.476.005.614.065.633.394.124.325-.504.389-.479.394.156.003.416.321 1.014.706 1.33.441.361.478.471.1.297-.33-.152-.093.18.526.739.62.559 1.108 1.124 1.085 1.256-.138.797.741 1.607 1.004.924.148-.383.449-.586.67-.45.252.156.217.361-.094.553-.736.455-.043 1.265.843.984.54-.171.766-.051.766.408 0 .39-.185.536-.462.365-.279-.173-.353-.11-.187.159.151.244.539.343.862.219.4-.154.587.039.587.603 0 .456.382 1.033.848 1.283.584.312.765.318.579.018-.168-.272-.034-.345.359-.194.346.133.58.536.521.896-.066.405.386.883 1.188 1.254.712.33 1.403.928 1.536 1.329.137.415.482.637.8.514.308-.118.54-.086.517.071-.115.772.091 1.309.423 1.104.204-.126.481.115.614.535.16.503.496.699.984.571.407-.107.862.002 1.009.241.148.239.034.438-.254.441-.288.003-.074.243.476.533.55.289.947.76.883 1.045-.078.347.162.445.724.298.521-.136.925-.004 1.059.347.12.311.377.468.571.348.195-.12.235.09.09.468-.178.466-.112.593.205.397.284-.176.468-.033.468.364 0 .409.262.6.7.512.385-.078 1.022.261 1.415.752.404.505.969.796 1.3.669.322-.124.585 0 .585.274 0 .819 1.319 1.586 1.899 1.105.373-.31.501-.211.501.386 0 .456.333.89.77 1.004.54.141.707.036.557-.353-.117-.305-.013-.555.23-.555.244 0 .422.135.396.3-.141.892.112 1.361.627 1.163.35-.134.677.086.826.557.225.709.673.957 1.494.827.165-.026.3.163.3.42 0 .256.113.353.251.215.138-.138 1.05.195 2.027.741.977.545 1.944.887 2.149.76.205-.126.373.07.373.437 0 .507.234.608.975.422.537-.135 1.094-.053 1.239.181.288.465 1.923 1.211 3.177 1.45.436.082.967.325 1.18.538.214.214.803.389 1.309.389.506 0 .92.169.92.375s.741.365 1.647.352c.906-.012 1.761.144 1.9.348.433.634 13.252.689 13.259.057.004-.323.121-.375.3-.132.458.623 1.42.705 1.188.101-.158-.411.284-.5 1.951-.394 1.798.115 2.155.028 2.155-.527 0-.427.215-.583.6-.435.33.126.6.045.6-.181 0-.226.162-.311.359-.189.788.486 6.455-1.604 6.322-2.332-.045-.245.322-.387.819-.318.538.075.902-.086.906-.4.005-.383.111-.363.394.075.213.33.391.396.394.147.003-.25.366-.548.805-.663.439-.115.934-.575 1.1-1.022.166-.448.481-.851.701-.896.862-.177 3.571-2.109 3.152-2.249-.248-.082.06-.688.7-1.373.63-.674 1.021-1.432.87-1.685-.152-.252.029-.212.401.09.592.48.677.452.677-.225 0-.425.376-1.176.835-1.669.473-.508.731-1.167.595-1.52-.177-.463-.058-.561.465-.379.595.208.584.152-.071-.355-.679-.525-.691-.601-.1-.601.372 0 .676-.281.676-.624 0-.343.163-.522.363-.399.199.123.26-.167.135-.644-.181-.695-.091-.816.454-.607.544.209.606.128.308-.405-.255-.456-.196-.842.187-1.225.308-.308.458-.726.333-.928-.125-.203-.064-.368.135-.368s.32-.636.268-1.412c-.07-1.048.027-1.312.377-1.021.335.278.49.162.532-.396.033-.434-.107-.685-.312-.559-.204.126-.264-.05-.133-.391.131-.342.489-.621.796-.621.692 0 .738-1.06.057-1.335-.4-.161-.4-.208 0-.233.31-.02.5-.629.5-1.599 0-.862.225-1.671.5-1.8.399-.186.399-.28-.002-.467-.277-.129-.398-.404-.27-.612.403-.651.483-4.354.095-4.354-.204 0-.286-.136-.183-.303.294-.476.453-15.637.167-15.923-.141-.141-.075-.733.147-1.315.221-.583.435-1.146.474-1.252.074-.2-1.392-.522-5.528-1.213a258.34 258.34 0 0 1-8.8-1.63c-1.1-.226-2.81-.508-3.8-.626-.99-.119-1.971-.378-2.18-.577-1.676-1.593-3.679 1.091-2.12 2.84.425.477.396.481-.2.031-.385-.292-.719-.463-.742-.381-.023.082-.086 1.103-.14 2.27-.055 1.166-.306 2.327-.559 2.58-.728.728-.533 1.255.241.648.636-.499.649-.484.145.158-.305.389-.582 1.109-.616 1.6-.034.491-.246.859-.471.818-.239-.044-.357.583-.283 1.512.087 1.101-.051 1.656-.45 1.809-.316.121-.486.452-.377.735.109.284-.079.622-.418.752a.639.639 0 0 0-.38.852c.158.413-.008.624-.507.643-.685.026-.68.055.057.372.63.271.66.35.139.372-.363.015-.849.568-1.079 1.228-.23.66-.564 1.2-.742 1.2-.177 0-.579.585-.893 1.3-.314.715-.853 1.538-1.198 1.83-.504.425-.509.47-.027.227.33-.166-.12.524-1 1.533s-1.782 1.852-2.004 1.872c-.577.054-1.468 1.598-1.186 2.054.13.211.062.384-.153.384s-.481-.225-.592-.5c-.111-.275-.219-.05-.24.5-.03.797-.116.878-.425.4-.258-.4-.39-.433-.394-.1-.003.275-.377.5-.83.5-.453 0-.712.18-.576.4.136.22-.113.4-.553.4-.44 0-.928.208-1.085.462-.189.305-.108.352.238.138.349-.216.427-.167.234.145-.159.257-.446.371-.637.253s-.552.104-.803.494c-.402.627-.43.63-.244.026.192-.62.087-.613-1.137.075-.742.416-1.678.813-2.081.882-.402.069-.83.256-.95.417-.173.23-3.572.518-8.182.692-1.77.067-5.169-.393-5.523-.747-.24-.24-.952-.437-1.581-.437s-1.037-.172-.907-.383c.138-.222-.27-.318-.976-.229-.875.111-1.213-.012-1.213-.441 0-.327-.148-.503-.329-.391-.18.112-.792-.037-1.358-.331-.566-.294-1.591-.486-2.278-.428-.687.059-1.381-.106-1.542-.365-.42-.677-2.746-2.246-2.981-2.011-.109.109-.426-.076-.704-.411-.278-.336-.754-.61-1.057-.61-.303 0-.551-.191-.551-.424 0-.233-.18-.312-.4-.176-.22.136-.4.057-.4-.176a.426.426 0 0 0-.424-.424c-.233 0-.313.178-.179.395.14.227-.02.294-.376.158-.586-.225-.796-.709-.653-1.5.035-.191-.383-.236-.928-.099-.578.145-1.11.056-1.277-.214-.19-.307-.11-.354.237-.14.346.214.427.167.238-.138-.157-.254-.555-.462-.885-.462-.33 0-.489-.18-.353-.4.136-.22-.026-.4-.361-.4-.334 0-.983-.403-1.442-.895-.459-.493-1.141-.898-1.515-.9-.375-.003-.643-.212-.595-.466.048-.253-.548-.762-1.324-1.13-.776-.368-1.51-.926-1.63-1.239-.12-.314-.469-.57-.776-.57-.306 0-.557-.18-.557-.4 0-.22-.135-.379-.3-.353-.797.126-1.322-.087-1.1-.447.136-.22.012-.4-.276-.4-.288-.001-1.004-.406-1.59-.9-.587-.495-1.427-1.2-1.867-1.567-.439-.367-.876-.59-.97-.496-.095.094-.659-.281-1.255-.833-.596-.552-1.265-1.004-1.486-1.004-.222 0-.292-.18-.156-.4.136-.22.025-.4-.247-.4s-1.015-.585-1.651-1.3c-.636-.715-1.022-1.04-.857-.721.176.34-.225.205-.973-.328-.699-.498-1.272-1.095-1.272-1.327 0-.286-.171-.28-.531.019-.415.344-.524.246-.5-.451.019-.54-.206-.892-.569-.892-.33 0-1.191-.585-1.913-1.3-1.244-1.231-1.979-1.696-1.528-.967.113.184-.048.334-.359.334s-.472-.15-.359-.334c.114-.183.005-.333-.241-.333-.251 0-.316-.219-.147-.5.225-.375.14-.37-.341.019-.431.35-.726.382-.9.1-.143-.23-.058-.419.188-.419s.336-.18.2-.4c-.136-.22-.607-.4-1.047-.4-.44 0-.706-.153-.59-.34.115-.187-.279-.59-.877-.897-.597-.307-1.377-.874-1.733-1.26-.356-.387-.941-.703-1.3-.703-.359 0-.653-.18-.653-.4 0-.22-.315-.386-.7-.368-.418.018-.499.112-.2.233m188.4 189.484c-.385.297-.7.755-.7 1.019 0 .263-.172.373-.383.243-.223-.138-.317.278-.226.999.097.764-.041 1.311-.36 1.433-.284.109-.469.627-.412 1.15.11 1.004-.681 1.597-1.927 1.442-.389-.048-1.338.562-2.11 1.356-.771.794-1.55 1.352-1.732 1.24-.181-.112-.555.218-.831.734-.334.623-.751.873-1.243.745-.532-.14-.808.078-.983.775-.21.837-.454.958-1.787.885-1.805-.098-2.526-.453-2.151-1.058.147-.238-.075-.7-.494-1.026-.618-.482-.633-.55-.081-.36.48.165.614.063.457-.346-.138-.358.023-.58.42-.58.44 0 .643-.359.643-1.138 0-.641.36-1.464.825-1.884.453-.411.746-1.046.65-1.412-.127-.487.026-.612.576-.469.455.119.762-.018.782-.35.019-.301.079-.952.133-1.447.055-.495-.005-.913-.133-.93a33.203 33.203 0 0 1-1.102-.192c-1.359-.255-3.574.872-5.56 2.83-1 .985-1.986 1.792-2.191 1.792-.67 0-2.408 1.751-2.221 2.238.113.293-.189.452-.788.418-.989-.057-1.311-.799-.552-1.268.285-.176.263-.448-.067-.846-.268-.323-.322-.556-.12-.517.805.153 1.403-.045 1.188-.393-.125-.202.014-.609.31-.905 1.058-1.058.692-3.725-.525-3.817-.452-.034-.718.108-.59.314.128.207-.149.376-.615.376-.466 0-.737-.178-.603-.395.14-.227-.02-.294-.374-.159-.34.131-.548.354-.463.496.086.142-.095.49-.402.774-.359.332-.558.359-.558.076 0-.241-.183-.326-.407-.188-.223.138-.284.449-.134.692.179.289.027.346-.442.166-.569-.218-.671-.112-.505.523.165.632.035.771-.626.67-.556-.084-1.415.453-2.571 1.609-1.669 1.669-2.456 2.211-1.897 1.306.147-.237-.1-.201-.55.081-.449.28-.727.653-.619.829.109.176-.082.32-.425.32-.547 0-.723-.454-.584-1.5.022-.165.215-.251.43-.19.214.06.287-.056.162-.258-.125-.203.043-.472.374-.599s.578-.371.55-.542c-.123-.754.072-1.341.382-1.149.187.115.339-.508.339-1.384 0-2.151-2.904-2.676-4.1-.741-.21.339-.131.384.261.148.467-.281.475-.231.048.296-.283.349-.486.789-.453.977.206 1.147-.058 1.923-.457 1.342-.326-.474-.387-.391-.294.4.082.694-.056.962-.45.877-.447-.096-.467-.001-.096.446.394.475.247.543-.904.416-1.102-.121-1.425.008-1.63.655-.181.571-.604.806-1.453.806-.695 0-1.093.167-.949.4.136.22.037.4-.219.4-.257 0-.364.267-.239.594.178.463-.055.566-1.057.469-1.344-.131-2.289.32-2.279 1.086.003.248.197.181.431-.149.345-.488.395-.493.268-.025-.219.813-1.105 1.02-1.105.258 0-.348-.199-.633-.443-.633-.243 0-.344.258-.223.573.156.406-.017.527-.594.415-.545-.104-.747.016-.613.365.141.367-.086.467-.764.338-.707-.135-.963-.006-.963.486 0 .369-.183.557-.407.419-.223-.138-.302-.419-.176-.624.127-.204-.398-.372-1.165-.372-1.534 0-2.652-.845-2.652-2.005 0-.852.63-1.394.974-.838.425.689 3.785.402 3.516-.3-.158-.412-.29-.457-.398-.134-.088.265-.344.368-.569.229-.782-.483.587-.885 1.539-.451.749.341 1.094.282 1.736-.3.441-.399.802-.601.802-.45 0 1.394 2.65-2.626 2.676-4.06.031-1.634-.174-1.882-1.416-1.712-.301.042-.42-.121-.268-.366.18-.291-.069-.378-.736-.258-.751.137-.952.038-.789-.386.168-.437-.174-.569-1.467-.569-1.345 0-1.638.123-1.452.609.191.499.089.532-.563.183-.642-.344-.85-.287-1.069.291-.351.928-1.316 1.914-1.316 1.346a.428.428 0 0 0-.424-.429c-.233 0-.312.18-.176.4.136.22-.028.4-.364.4-.353 0-.522.231-.401.547.123.321-.117.634-.582.755-1.054.276-2.849 4.216-2.96 6.498-.072 1.495.165 2.611.51 2.398.221-.137.509.028.638.366.33.859 2.939 1.311 3.397.589.274-.433.351-.439.356-.029.003.288.174.42.378.293.205-.126.471-.071.591.122.185.301.939.336 2.361.112.178-.028.236-.192.129-.364-.106-.173.423-.293 1.177-.268.905.03 1.37-.138 1.37-.495 0-.375.303-.463.996-.289.689.173 1.067.065 1.226-.348.143-.373.56-.527 1.104-.408.628.137.724.084.34-.189-.434-.308-.416-.423.094-.619.344-.132.569-.473.499-.756-.07-.283-.052-.38.04-.215.342.612 1.798.272 2.567-.6.437-.495.681-.675.541-.4s-.064.5.169.5c.236 0 .424.8.424 1.8 0 .99.18 1.8.4 1.8.22 0 .4.27.4.6 0 .33.191.6.424.6.233 0 .324-.161.202-.358-.122-.197.038-.458.356-.58.385-.147.503-.028.355.358-.123.319-.023.58.22.58.244 0 .443-.14.443-.311 0-.696 2.412-2.889 3.177-2.889.453 0 .778-.225.723-.5-.055-.275.08-.472.3-.438.22.034.632-.191.916-.5.283-.309.405-.562.269-.562-.135 0 .312-.47.994-1.044.729-.613 1.546-.964 1.98-.851.556.146.693.016.553-.521-.121-.463.143-.892.75-1.215.854-.455.889-.44.389.166-.302.366-.432.665-.29.665.143 0-.022.545-.367 1.212-.345.666-.502 1.414-.349 1.662.17.274.099.338-.183.164-.282-.174-.47-.004-.484.438-.012.398-.07 1.507-.128 2.464-.118 1.939.627 2.655 1.509 1.449.286-.391.725-.584.976-.429.305.188.372.043.202-.439-.201-.567-.147-.621.253-.252.663.612 1.624.233 1.333-.526-.145-.378.079-.671.625-.814.469-.122.852-.381.852-.576 0-.194.135-.324.3-.289.689.145 1.767-.633 2.298-1.66.61-1.18 2.891-1.335 2.443-.166-.113.295-.042.638.159.762s.298.445.216.713c-.555 1.814-.597 2.685-.124 2.59.279-.057.465.116.413.383-.059.3.158.388.569.23.502-.193.602-.091.408.415-.301.784-.261.793 1.115.27.695-.264.966-.264.803 0-.292.471 1.486.354 1.836-.121.13-.176.625-.349 1.1-.385.475-.036.864-.207.864-.38 0-.173.191-.315.424-.315.233 0 .3.199.15.441-.15.243.2.133.777-.246.577-.378 1.049-.929 1.049-1.226 0-.296.718-.731 1.595-.968.878-.236 1.553-.64 1.5-.897-.052-.257.175-.484.505-.504.33-.02.551-.267.49-.548-.066-.306.082-.393.368-.216.324.2.397.085.227-.358-.137-.359-.062-.768.167-.91.255-.158.37.11.295.687-.067.52.042 1.215.242 1.545.324.533.281.533-.387 0-.682-.544-.727-.535-.489.1.175.468.067.7-.326.7-.323 0-.587.191-.587.424 0 .233.198.301.44.151.305-.188.299-.008-.02.588-.253.473-.659.736-.903.586-.294-.182-.366.019-.216.595.13.497-.015 1.112-.337 1.434-.31.311-.564.722-.564.914 0 .602-.986 2.502-1.3 2.505-.165.002-.3.273-.3.603 0 .33-.202.6-.449.6-.293 0-.258.236.1.677.469.577.466.626-.019.334-.429-.259-.504-.175-.305.344.146.38.099.585-.104.459a.443.443 0 0 0-.604.155c-.13.21.083.567.473.794.623.363.588.414-.292.425-.859.011-1.011.21-1.077 1.412l-.076 1.4h2.4c1.498 0 2.307-.15 2.153-.4-.136-.22-.057-.4.176-.4.233 0 .424.191.424.424 0 .233.208.294.463.137.254-.157 1.109-.263 1.9-.234 1.054.037 1.277-.051.837-.332-.465-.297-.353-.384.5-.389.806-.004 1.1-.206 1.1-.754 0-.838-4.457-1.235-5.369-.477-.318.263-.46.15-.46-.368 0-.411.142-.661.315-.554.173.107.314-.097.314-.453s.178-.537.395-.403c.227.14.294-.02.159-.373-.14-.366.029-.719.415-.867.539-.207.563-.359.141-.88-.28-.347-.325-.52-.099-.385s.717-.289 1.092-.942c.375-.653.505-1.078.289-.945-1.097.678-.19-.539 1.012-1.357 1.068-.728 1.728-.899 2.797-.725.769.125 1.399.099 1.399-.057 0-.251 3-1.191 4.283-1.342.265-.032.579-.309.697-.616.118-.309.425-.428.685-.268.301.186.393.087.254-.274-.172-.447.152-.536 1.532-.426 1.608.129 1.749.065 1.755-.8.003-.517.138-.76.3-.54.471.641 1.297.657 1.538.029.128-.334.49-.476.855-.336.415.16.534.084.346-.22-.182-.294-.078-.384.283-.245.313.12.676-.062.808-.405.26-.679 2.247-.873 2.291-.223.014.22.035 1.345.047 2.5.024 2.496.201 2.902.984 2.252.323-.268.556-.322.517-.12-.191 1.006.098 1.529.425.768.233-.541.353-.604.372-.195.031.671 2.828.942 2.828.274 0-.207.249-.17.553.082.43.357.611.31.81-.208.141-.367.37-.553.51-.414.139.14.53.031.867-.242.489-.397.553-.396.313.003-.165.275-.129.5.081.5.209 0 .491-.289.627-.642.145-.377.499-.544.863-.404.353.135.513.068.373-.159-.134-.217.02-.395.343-.395.758 0 4.369-3.5 4.085-3.96-.119-.192.027-.551.325-.798.589-.489.758-3.642.195-3.642-.19 0-.345-.461-.345-1.024s-.169-.919-.375-.791c-.207.127-.577-.087-.824-.477-.343-.543-.499-.584-.669-.172-.156.375-.365.256-.699-.4-.551-1.08-3.715-1.253-4.928-.27-.471.382-.573.391-.358.034.165-.275.11-.5-.123-.5-.233 0-.424.281-.424.624 0 .343-.171.518-.379.389-.209-.129-.31.127-.225.568.085.441-.042.924-.282 1.072-.281.174-.322.083-.114-.253.221-.357.168-.427-.165-.221-.269.166-.41.509-.313.761.121.316-.376.416-1.587.319-1.324-.107-1.734-.007-1.649.4.07.331-.227.53-.766.511-.484-.016-.789.119-.677.3.208.336-.399.487-1.398.347-.383-.053-.484.192-.327.793.186.71.086.832-.546.667-.461-.121-.672-.039-.522.203.155.252-.061.307-.57.145-.562-.178-.954-.034-1.243.457-.367.625-.475.64-.824.118-.344-.515-.402-.5-.407.1-.003.385-.276.7-.606.7-.33 0-.6.191-.6.424 0 .233-.189.306-.42.164-.253-.157-.015-.609.6-1.137.561-.482 1.033-1.231 1.048-1.664.028-.774.034-.774.372.013.362.842.434.668.537-1.3.02-.385.184-.805.365-.933.384-.273-.28-2.204-1.004-2.92-.845-.836-4.345-.836-4.024 0 .188.491.117.595-.251.367-.295-.182-.642-.106-.819.179-.169.273-.868.519-1.555.547-.687.029-1.249.201-1.249.384 0 .677-1.137 1.502-1.426 1.034-.152-.246-.028-.605.275-.797.457-.289.448-.354-.049-.382-.377-.021-.266-.194.3-.467.495-.239.9-.597.9-.797 0-.199.18-.251.4-.115.576.356.494-.569-.1-1.129-.718-.677-3.576-.756-4.4-.122m42.17.988c-1.03.49-1.293.832-1.163 1.512.11.573-.001.813-.318.691-.457-.175-.972.583-1.219 1.795-.06.294-.397.853-.749 1.242-.39.43-.531.991-.363 1.431.179.464.126.629-.147.46-.241-.148-.534.17-.676.735-.138.548-.53.997-.873.997-.688 0-.712 2.182-.034 3.1.242.327.206.5-.103.5-.26 0-.359.183-.221.407.138.223.423.3.634.17.21-.13.332.002.272.293-.153.738 2.902.763 3.185.026a.587.587 0 0 1 .757-.332c.301.116.548.037.548-.177 0-.213.281-.387.624-.387.343 0 .51-.183.372-.407-.138-.223-.447-.285-.685-.138-.268.166-.319.081-.133-.22.166-.268.403-.388.525-.265.123.123.5 0 .837-.273.507-.41.562-.392.318.103-.162.33.005.195.372-.3s1.006-.9 1.419-.9c.413 0 .751-.191.751-.424 0-.233-.18-.312-.4-.176-.22.136-.4.044-.4-.203 0-.259.32-.349.753-.212.808.257 1.458-.72.986-1.483-.155-.251-.073-.308.199-.14.254.157.462.555.462.885 0 .33.183.487.407.349.223-.138.321-.389.217-.557-.104-.168.063-.306.371-.306s.526.188.483.418c-.104.559-.828 1.395-1.078 1.245-.11-.066-.2.313-.2.842 0 .529.116.962.257.962.142 0 .365.279.496.621.135.352.069.516-.153.379-.221-.137-.288.027-.154.377.131.34.384.528.564.417.179-.111.565.026.858.305.717.682 2.631.741 2.882.088.121-.317.543-.435 1.066-.299.52.136 1.004.004 1.21-.331.19-.306.486-.573.659-.592.98-.107 1.64-.696 1.42-1.268-.187-.486-.073-.57.482-.357.614.235.648.184.221-.331-.418-.503-.393-.609.143-.609a.639.639 0 0 0 .649-.624c0-.343.172-.517.383-.387.21.13.265.546.122.924-.239.63-.2.628.457-.024.613-.608.639-.812.178-1.4-.486-.62-.471-.635.149-.149.736.576 1.741-.014 1.997-1.173.343-1.558 1.884-2.588 3.8-2.539 1.053.027 2.274-.136 2.714-.362.44-.226 1.25-.451 1.8-.498.55-.048.774 0 .498.107-.277.106-.401.358-.277.559.124.201.025.366-.221.366s-.337.178-.203.395c.146.236-.035.289-.446.131-.529-.203-.63-.108-.433.405.16.416.058.669-.269.669-.325 0-.497.42-.45 1.1.042.605-.083 1.307-.277 1.559-.527.687-.73 2.141-.299 2.141.207 0 .377.242.377.538 0 .815 1.402 1.913 2.102 1.644.339-.13.735-.046.878.186.165.267-.005.329-.459.169-.524-.185-.607-.13-.305.2.286.313.818.34 1.7.087.706-.202 1.287-.246 1.29-.096.003.15.181.002.394-.328.342-.53.388-.528.394.015.003.338.366.642.806.675.573.043.802-.188.806-.815.005-.633.1-.727.345-.341.391.618 2.012.49 2.761-.217.281-.266.774-.382 1.096-.259.328.126.693-.057.831-.414.134-.352.406-.54.603-.418.197.122.358.02.358-.226s.18-.336.4-.2c.22.136.4.057.4-.176 0-.233.27-.424.6-.424.33 0 .6-.166.6-.368 0-.203.542-.487 1.203-.633.662-.145 1.102-.429.977-.632-.125-.202.053-.367.396-.367s.635-.225.649-.5c.014-.275.198-.069.409.458.211.527.289 1.052.175 1.167-.115.114-.222-.047-.237-.358-.016-.321-.164-.22-.34.233-.186.475-.132.962.133 1.2.244.22.37.358.279.306-.091-.051-.388.211-.66.583-.563.77-.32 1.842.326 1.443.252-.156.338-.032.21.302-.154.403.119.578.942.609 1.113.042 1.132.013.473-.715-.659-.728-.648-.744.272-.404.968.359 1.921-.656 2.651-2.824.129-.385.574-.7.989-.7.532 0 .753-.287.753-.976 0-.537.208-1.105.462-1.262.313-.194.353-.105.123.276-.288.479-.238.481.338.013.372-.302.677-.801.677-1.11 0-.308.45-.732 1-.941.55-.209 1-.575 1-.814 0-.238.18-.322.4-.186.22.136.4-.021.4-.349 0-.77 1.39-1.237 3.345-1.126 1.26.072 1.501-.028 1.305-.539-.132-.345-.072-.523.135-.396.206.128.572-.135.812-.585.346-.646.309-.866-.177-1.053-.339-.13-.523-.385-.411-.566.112-.182-.591-.298-1.564-.258-.972.039-1.672.226-1.556.415.116.188-.153.227-.599.086-.588-.187-1.04.035-1.65.811-.462.587-.84.92-.84.739 0-.182-.367.064-.816.546-.448.481-.999.875-1.223.875-.225 0-.303.171-.173.38.284.46-1.346 1.404-1.722.998-.146-.158-.04-.368.236-.467.766-.273.171-.908-.615-.656-.564.181-.583.147-.106-.191.319-.226.706-.334.858-.24.799.494.969-2.073.19-2.853-.649-.649-1.829-.767-1.829-.184 0 .214-.27.284-.6.158-.385-.148-.6.008-.6.436 0 .401-.183.553-.461.381-.332-.205-.398.185-.235 1.396.171 1.279.11 1.586-.254 1.283-.349-.289-.503-.114-.566.649-.102 1.238-.07 1.197-1.084 1.372-.44.076-1.129.498-1.53.938-.402.44-.617.575-.477.3.14-.275.076-.5-.142-.5-.217 0-.453.391-.523.869-.07.477-.398.957-.728 1.065-.514.168-.522.101-.051-.469.302-.366.366-.665.143-.665-.224 0-.514.281-.646.625-.135.35-.445.499-.705.339-.289-.179-.357-.113-.179.174.158.256.051.483-.238.508-1.372.121-1.57.181-1.837.554-.533.744-2.052 1.389-2.692 1.143-.377-.145-1.061.143-1.68.706-.574.523-.905.711-.736.418.243-.419-.106-.507-1.635-.414l-1.944.119.135-1.331c.103-1.022.011-1.259-.4-1.022-.314.181-.397.159-.202-.054.183-.2 1.398-.303 2.7-.228 1.92.111 2.367.021 2.367-.477 0-.39.28-.56.768-.466.423.081.867-.109.988-.423.12-.314.45-.577.731-.584.969-.025 2.313-1.508 2.313-2.551 0-.57.188-1.036.418-1.036 1.34 0-.275-2.3-1.754-2.498-.569-.076-1.176-.294-1.349-.484-.175-.193-.066-.202.247-.02.394.228.469.176.253-.174-.409-.661-4.074-.283-4.641.48-.124.167-.962.347-1.863.4-1.132.066-1.525.231-1.276.535.252.305-.064.41-1.042.344-.908-.061-1.521.117-1.738.505-.294.524-.367.518-.583-.044-.163-.427-.732-.644-1.683-.644-1.033 0-1.357.14-1.154.5.226.4.175.4-.256 0-.297-.275-.842-.5-1.212-.5-.371 0-.773-.378-.893-.84-.121-.463-.412-.722-.647-.577-.235.145-.427.084-.427-.136 0-.418-1.267-.3-2.063.192-.285.176-.352.108-.175-.177.157-.254.095-.462-.138-.462s-.424.27-.424.6c0 .33-.202.6-.449.6-.293 0-.258.236.1.677.373.46.389.58.049.376-.275-.165-.5-.11-.5.123 0 .233.251.424.557.424.698 0 1.214 1.247.658 1.59-.226.14-.45.729-.498 1.308-.054.649-.377 1.129-.842 1.251-.472.123-.642.381-.453.686.193.313.135.386-.163.201-.26-.16-.57-.012-.704.336-.131.343-.38.536-.551.43-.172-.106-.407.165-.521.602-.126.484-.546.796-1.069.796-.474 0-.75.18-.614.4.136.22-.123.4-.576.4-.453 0-.948.005-1.099.011-.151.006-.315-.264-.365-.6-.049-.336.078-.611.283-.611.205 0 .291-.45.191-1-.124-.686-.001-1 .392-1 .392 0 .583-.477.602-1.5.023-1.203.096-1.342.372-.7.302.704.347.665.372-.324.019-.752-.125-1.029-.434-.838-.293.181-.353.109-.164-.196.23-.372.427-.373.871-.005.466.387.526.352.32-.185-.189-.491-.088-.597.39-.414.696.267.835-.489.393-2.138-.246-.916-2.548-1.38-2.548-.513 0 .214-.27.284-.6.158-.385-.148-.6.008-.6.436 0 .422.183.559.5.374.275-.161.151.105-.275.59-.426.486-1.031.785-1.344.665-.398-.153-.495-.023-.321.43.174.454.077.583-.322.43a.615.615 0 0 0-.792.355c-.122.316-.477.575-.791.575-.313 0-.673.27-.8.6-.126.33-.596.6-1.042.6-.492 0-.813.263-.813.667 0 .366-.114.553-.253.414-.139-.139-.726.254-1.305.874-1.642 1.758-3.471 2.601-3.471 1.601 0-.5.199-.7.559-.561.391.15.482.014.303-.453-.157-.41.094-1.051.656-1.669.501-.551.641-.87.311-.708-.33.162-.251.011.176-.335.428-.347.917-.63 1.088-.63.171 0 .211-.259.09-.576-.122-.316-.031-.901.2-1.3.232-.398.427-.499.434-.224.017.714 1.081.62 1.365-.121.145-.379.073-.518-.187-.358-.234.145-.187-.127.104-.604 1.044-1.706-1.102-2.469-3.6-1.28m71.13-.379c0 .204-.315.325-.7.268-.385-.057-.94.184-1.233.535-.481.578-.511.572-.312-.061.121-.385.046-.7-.168-.7-.213 0-.387.27-.387.6 0 .339-.358.6-.824.6-.453 0-.712.18-.576.4.139.225-.18.4-.727.4-.536 0-1.203.274-1.481.609-.428.516-.39.57.251.352.553-.188.465.006-.323.72-.989.895-1.415 2.719-.635 2.719.173 0 .315.283.315.629 0 .745.997 1.84 1.352 1.485.137-.136.248.233.248.819 0 .587.169 1.067.375 1.067s.349.348.317.772c-.032.425-.231.665-.443.535-.968-.599-4.249-.508-4.249.117 0 .343-.143.535-.317.427-.174-.107-.359.353-.41 1.023-.086 1.127-.015 1.198.951.956.677-.17.953-.116.786.154-.142.229-.067.416.166.416s.424-.158.424-.351c0-.193.927-.301 2.059-.24 1.311.071 1.856-.017 1.5-.243-.444-.281-.41-.355.165-.36.398-.003.62-.174.493-.378a.435.435 0 0 1 .135-.598c.2-.124.467.044.594.372.325.848 1.054.742 1.054-.153 0-.835.926-1.79 1.337-1.379.145.145.263.064.263-.18 0-.243-.158-.541-.352-.66-.193-.12-.446-.581-.562-1.024-.116-.444-.05-.708.147-.586s.251-.057.121-.397c-.131-.34-.39-.524-.576-.409-.186.114-.533-.157-.772-.603-.239-.446-.31-.811-.159-.811.152 0-.128-.35-.62-.777-.642-.556-.819-1.018-.625-1.63.149-.469.373-.751.498-.627.124.125.503.004.84-.269.404-.327.519-.339.336-.034-.21.35-.034.35.724 0 .55-.255.931-.649.846-.877-.095-.253.373-.353 1.199-.257 1.305.153 1.355.108 1.355-1.2 0-1.223-.12-1.368-1.2-1.45-.66-.051-1.2.075-1.2.279m-162.372 3.025c.199-.124.256.055.125.396-.131.342-.41.621-.619.621-.21 0-.27.18-.134.4.136.22.057.423-.176.45-1.255.148-1.418.221-1.347.6.084.449-1.29.47-1.733.027-.15-.149.133-.624.629-1.053.495-.43.794-.954.663-1.165-.135-.22.109-.294.569-.173.656.171.754.071.523-.538-.27-.714-.251-.716.427-.044.39.387.873.602 1.073.479m126.966.198c.447 1.41-1.246 2.885-2.794 2.434a4.423 4.423 0 0 0-.9-.133.532.532 0 0 1-.5-.536c0-.299.256-.423.6-.291.33.127.6.031.6-.212 0-.244.25-.443.557-.443.306 0 .668-.444.804-.986.277-1.106 1.261-1.006 1.633.167m-49.35-.208c.293-.181.375-.127.211.138-.147.238-.085.547.138.685.526.324.531 1.804.007 1.804-.22 0-.4.36-.4.8 0 .44-.18.8-.4.8-.22 0-.403.405-.406.9-.005.646-.102.749-.345.366-.257-.406-.39-.334-.556.3-.12.459-.524.834-.898.834-.434 0-.599.213-.455.587.124.323.053.694-.157.824-.211.13-.383.076-.383-.121 0-.196-.262-.357-.582-.357-.321 0-.49.15-.377.334.114.183-.218.333-.737.333s-1.115.138-1.324.307c-.209.168-.337.23-.283.136.053-.093-.127-.446-.4-.783-.397-.489-.396-.553.003-.313.436.262.583.021.468-.768-.018-.122.271-.684.641-1.249.469-.716.509-.944.132-.75-.297.154-.214.012.186-.314.399-.326.759-.745.8-.93.04-.185.184-.299.32-.254.136.046.676-.385 1.2-.957l.953-1.04-1.063.679c-.801.512-1.136.561-1.362.196-.182-.294-.131-.38.131-.218.236.146.701-.006 1.033-.338.332-.332 1.022-.607 1.532-.61.747-.005.811-.082.329-.394-.509-.329-.49-.389.124-.394.471-.004.619-.18.423-.506-.214-.357-.111-.347.359.034.362.294.875.402 1.138.239m-19.644 1.274c0 .649-.161.901-.458.717-.316-.195-.396.043-.258.764.11.576.045.952-.145.834-.19-.117-.627.068-.971.412-.344.345-.515.626-.381.626.278 0-.727 1.027-2.156 2.203-.533.438-.837.572-.676.297.161-.275.102-.5-.131-.5-.233 0-.424.237-.424.527 0 .358-.454.492-1.414.416-.828-.065-1.315.048-1.176.273.13.211-.133.384-.586.384-.453 0-.824-.191-.824-.424 0-.233-.193-.304-.43-.158-.237.147-.201-.1.081-.55.28-.449.684-.708.897-.577.222.137.282-.037.14-.405-.174-.453-.075-.579.332-.423.319.123.58.01.58-.249 0-.683 1.046-1.625 1.439-1.295.184.155.09-.038-.209-.428-.467-.609-.458-.677.062-.477.346.133.707-.035.844-.391.131-.343.569-.623.971-.623.403 0 .92-.187 1.149-.416 1.794-1.794 3.744-2.074 3.744-.537m9.713 3.333c-.784.731-1.313.707-1.313-.06 0-.377 1.694-1.125 1.971-.869.094.087-.202.505-.658.929m-53.323.75c-.325.105-.717.386-.872.625-.156.239-.254.059-.22-.401.048-.632.262-.785.872-.625.598.156.655.261.22.401m-4.59.619c0 .595-.187.878-.5.757-.577-.221-.58-.233-.257-1.073.359-.935.757-.769.757.316" fill="#0c64b0"/></g></svg>